<?xml version="1.0" encoding="UTF-8" standalone="no"?>
<!-- Created with Inkscape (http://www.inkscape.org/) -->

<svg width="1024" height="1024" viewBox="0 0 270.93333 270.93333" version="1.1" id="svg835" xml:space="preserve"
  xmlns="http://www.w3.org/2000/svg" xmlns:svg="http://www.w3.org/2000/svg">
  <defs id="defs832" />
  <g id="layer1">
    <g id="g923" transform="matrix(1.7964482,0,0,1.7964482,-32.97354,-69.195841)">
      <path style="fill:#fdc007;stroke-width:0.264583"
        d="m 103.22069,164.79496 c 0.22003,-0.5782 28.44343,-49.58427 28.75231,-49.92445 0.58905,-0.64873 0.45223,0.23382 -0.27856,1.79688 -1.02399,2.19019 -0.8152,4.24464 0.51493,5.0667 0.15151,0.0936 0.76452,1.14352 1.36225,2.33306 0.59772,1.18954 1.31247,2.46046 1.58831,2.82426 0.27585,0.36381 1.06353,1.51726 1.75039,2.56324 1.18842,1.80975 7.03598,8.49595 8.60054,9.83399 0.40541,0.34671 0.90411,0.94363 1.10822,1.32648 0.20412,0.38284 0.83332,1.19378 1.39824,1.80208 l 1.02713,1.10599 -6.23762,10.80026 -6.23761,10.80025 -16.76274,0.0681 c -15.89835,0.0646 -16.75361,0.0441 -16.58579,-0.39688 z"
        id="path937" />
      <path style="fill:#fabc07;stroke-width:0.264583"
        d="m 147.66136,141.93478 c -0.56954,-0.74843 -1.4986,-1.84976 -2.06459,-2.44739 -3.9411,-4.16144 -7.62489,-8.41617 -8.68645,-10.03274 -0.68686,-1.04598 -1.47454,-2.19943 -1.75039,-2.56324 -0.27584,-0.3638 -0.99059,-1.63472 -1.58831,-2.82426 -0.59773,-1.18954 -1.21074,-2.23942 -1.36225,-2.33306 -1.3258,-0.81939 -1.53881,-2.87675 -0.52283,-5.0498 0.44188,-0.94511 0.73251,-1.83312 0.64584,-1.97334 -0.0867,-0.14022 -0.0438,-0.25495 0.0953,-0.25495 0.22904,0 16.71169,28.27966 16.71169,28.67264 0,0.47046 -0.54895,0.0271 -1.47802,-1.19386 z"
        id="path935" />
      <path style="fill:#4385f0;stroke-width:0.264583"
        d="m 50.931685,165.05756 c -0.85516,-1.00528 -27.093411,-46.84888 -27.522829,-48.08802 -1.359452,-3.92286 -1.014337,-4.82596 7.431527,-19.446877 8.047032,-13.930481 7.225558,-12.738645 7.899124,-11.460453 0.292561,0.555175 3.00023,5.295662 6.017041,10.534412 3.016811,5.238748 6.454677,11.220248 7.639701,13.292218 1.185023,2.07198 2.273652,3.77326 2.419172,3.78062 0.391758,0.0199 29.835293,51.25976 29.638189,51.57868 -0.336603,0.54464 -33.054735,0.35863 -33.521925,-0.19058 z m 30.672799,0.0254 c 5.293889,-0.41211 1.05501,-0.61754 -14.089105,-0.68282 -12.638196,-0.0545 -16.271909,0.002 -16.271875,0.25165 2.9e-5,0.22741 0.834136,0.34671 2.844313,0.40682 5.745049,0.17179 25.399198,0.18918 27.516667,0.0243 z M 136.40563,62.663809 c -0.32911,-0.419645 -0.31975,-0.429003 0.0999,-0.0999 0.44073,0.345644 0.58088,0.562917 0.36312,0.562917 -0.0549,0 -0.2633,-0.208359 -0.46302,-0.463021 z"
        id="path933" />
      <path style="fill:#417be5;stroke-width:0.264583"
        d="m 54.087817,165.05856 c -2.010177,-0.0601 -2.844284,-0.17941 -2.844313,-0.40683 -3.4e-5,-0.24992 3.633679,-0.30611 16.271875,-0.25164 15.144115,0.0653 19.382994,0.27071 14.089105,0.68281 -2.117469,0.16484 -21.771618,0.14745 -27.516667,-0.0243 z M 164.56089,114.05912 c 0.002,-0.7276 0.0534,-0.99386 0.11418,-0.59167 0.0608,0.40218 0.0592,0.99749 -0.004,1.32291 -0.0628,0.32543 -0.11255,-0.004 -0.11057,-0.73124 z M 52.39678,109.88884 c -1.18473,-2.07197 -4.771498,-8.3158 -7.970596,-13.875172 -5.484357,-9.530691 -6.529828,-11.433522 -5.930615,-10.79413 0.18347,0.195771 9.329397,15.976342 16.369499,28.244272 0.06263,0.10914 0.01754,0.19705 -0.100177,0.19535 -0.117729,-0.002 -1.183378,-1.69834 -2.368111,-3.77032 z m 50.77313,-47.026593 c 0.0948,-0.34734 2.16952,-0.397259 16.62274,-0.399944 l 16.51444,-0.0031 -16.38981,0.07125 c -12.6898,0.05517 -16.4424,0.145454 -16.62275,0.399944 -0.17122,0.241607 -0.20424,0.223544 -0.12462,-0.06818 z"
        id="path931" />
      <path style="fill:#d95e54;stroke-width:0.264583"
        d="m 132.47829,114.46633 c -0.21406,-0.13538 -0.32033,-0.31503 -0.23614,-0.39922 0.0842,-0.0842 0.30368,0.0284 0.48776,0.2502 0.38168,0.4599 0.3085,0.50325 -0.25162,0.14902 z M 54.865068,113.46381 C 53.028777,110.26393 38.646925,85.359373 38.467143,85.068091 c -0.235636,-0.381778 11.173973,-20.77561 12.460372,-22.27199 0.479623,-0.557916 33.653531,-0.736362 33.653531,-0.181028 0,0.155096 -6.055119,10.781424 -13.455822,23.614062 -7.4007,12.832639 -13.959901,24.254805 -14.575996,25.382595 -1.053428,1.92833 -1.413298,2.32408 -1.68416,1.85208 z m 3.139509,-5.49011 C 59.418412,105.49985 65.738379,94.524148 72.048948,83.583257 78.35952,72.642366 83.522713,63.56385 83.522713,63.408778 c 0,-0.555019 -31.849568,-0.376682 -32.338245,0.181073 -0.707192,0.807162 -12.111755,20.743603 -12.111755,21.172694 0,0.225777 0.280502,0.897212 0.623338,1.49208 0.342836,0.594868 3.93266,6.832211 7.977382,13.860755 4.044726,7.02855 7.445505,12.68402 7.557292,12.56771 0.111783,-0.11631 1.360016,-2.23553 2.773852,-4.70939 z"
        id="path929" />
      <path style="fill:#d84235;stroke-width:0.264583"
        d="m 47.673433,100.11538 c -4.044722,-7.028544 -7.634546,-13.265887 -7.977382,-13.860755 -0.342836,-0.594868 -0.623338,-1.266303 -0.623338,-1.49208 0,-0.429091 11.404563,-20.365532 12.111755,-21.172694 0.488677,-0.557755 32.338245,-0.736092 32.338245,-0.181073 0,0.155072 -5.163193,9.233588 -11.473765,20.174479 -6.310569,10.940891 -12.630536,21.916593 -14.044371,24.390443 -1.413836,2.47386 -2.662069,4.59308 -2.773852,4.70939 -0.111787,0.11631 -3.512566,-5.53916 -7.557292,-12.56771 z"
        id="path927" />
      <path style="fill:#0f9c57;stroke-width:0.264583"
        d="m 148.67141,141.92588 c -0.83358,-1.36981 -15.22014,-26.34997 -16.20138,-28.13134 -0.48095,-0.87313 -7.18142,-12.52603 -14.88994,-25.895347 C 109.87157,74.52988 103.5059,63.366871 103.43415,63.092508 103.30723,62.607154 103.75278,62.595507 119.91,62.661809 l 16.6063,0.06815 13.58568,23.547917 c 18.04907,31.284244 17.29321,25.386054 5.79802,45.243744 -7.26564,12.55123 -6.54941,11.52035 -7.22859,10.40426 z"
        id="path925" />
    </g>
  </g>
</svg>