<?xml version="1.0" encoding="UTF-8" standalone="no"?>
<!-- Created with Inkscape (http://www.inkscape.org/) -->

<svg
   width="1024"
   height="1024"
   viewBox="0 0 1024 1024"
   version="1.1"
   id="svg5"
   xml:space="preserve"
   xmlns="http://www.w3.org/2000/svg"
   xmlns:svg="http://www.w3.org/2000/svg"><defs
     id="defs2" /><g
     id="layer3"><g
       id="g4805"
       transform="matrix(1.043781,0,0,1.0559153,-30.532394,-4.0388418)"><path
         style="fill:#ff8413;fill-opacity:1;stroke-width:1.13525"
         d="m 489.31074,346.58453 c -1.70765,-2.05563 -5.12936,-5.91871 -7.60379,-8.58462 -13.53364,-14.58087 -23.63156,-33.60975 -23.63156,-44.53211 0,-14.21264 14.0504,-31.56171 45.73323,-56.47023 2.98742,-2.34866 7.64233,-6.18604 10.34425,-8.5275 2.70191,-2.34147 5.39457,-4.25721 5.98367,-4.25721 1.25082,0 24.58993,-24.01986 28.75925,-29.59809 3.39857,-4.54704 4.57528,-6.78703 7.15468,-13.61974 2.65297,-7.0276 5.26719,-21.28705 4.66857,-25.4651 -0.47554,-3.31901 -0.44657,-3.30455 1.13718,0.56763 2.33698,5.71378 2.14716,16.38168 -0.45882,25.78567 -1.90407,6.87106 -4.86968,13.11104 -11.93399,25.1104 -5.35652,9.09856 -21.41267,25.73826 -35.78559,37.08619 -9.74452,7.69365 -27.22106,24.50008 -27.22106,26.1773 0,0.74715 -0.73247,1.96633 -1.6277,2.70931 -0.89524,0.74299 -3.29509,4.50931 -5.33299,8.36961 -3.33561,6.3185 -3.75259,8.18554 -4.17952,18.71433 -0.66934,16.50707 1.78386,24.2208 13.16947,41.40942 5.45329,8.23272 5.94506,11.2885 0.82472,5.12474 z"
         id="path3459" /><path
         style="fill:#ff8413;fill-opacity:1;stroke-width:1.13525"
         d="m 542.1126,362.71397 c -0.0414,-7.22659 -0.60205,-11.72133 -1.69921,-13.62306 -0.90057,-1.56098 -2.11158,-3.85987 -2.69112,-5.10865 -0.57955,-1.24878 -2.19003,-3.29224 -3.57886,-4.54102 -2.23628,-2.01077 -5.84713,-7.15126 -11.64769,-16.58192 -3.14935,-5.12025 -6.52233,-17.05165 -6.52233,-23.07171 0,-6.62855 3.39052,-16.87339 6.77734,-20.47849 1.26759,-1.34928 2.3047,-2.94396 2.3047,-3.54374 0,-1.6835 15.83846,-16.66379 21.56985,-20.40112 2.80975,-1.8322 5.36408,-3.64592 5.67627,-4.0305 0.3122,-0.38457 3.88825,-2.35095 7.94679,-4.36973 4.05853,-2.01877 9.2949,-4.67571 11.63636,-5.90431 2.36599,-1.24148 4.25721,-1.69723 4.25721,-1.02593 0,0.66434 -0.45562,1.2079 -1.01249,1.2079 -1.4635,0 -20.23875,15.15739 -26.4512,21.35424 -10.44646,10.42022 -13.97312,17.63778 -13.97312,28.59697 0,7.32863 0.52192,9.58162 3.74757,16.17739 2.06116,4.21463 4.23234,7.66297 4.82483,7.66297 0.5925,0 1.07727,0.59835 1.07727,1.32968 0,0.73132 0.84866,2.26743 1.8859,3.41358 1.03725,1.14615 2.44213,3.03055 3.12196,4.18757 0.67982,1.15702 2.6489,4.12817 4.37574,6.60257 1.72683,2.47439 3.7303,7.31461 4.45215,10.75603 1.24801,5.94996 1.14444,6.61468 -2.10982,13.54039 -1.88225,4.00579 -5.78117,9.83758 -8.66428,12.95954 l -5.24201,5.67627 -0.0618,-10.78492 z"
         id="path3461" /><path
         style="fill:#00849a;fill-opacity:1;stroke-width:0.802746"
         d="m 461.17786,408.50639 c -34.00852,-1.80723 -47.44027,-3.32942 -62.05927,-7.03303 -4.81608,-1.22012 -8.58242,-3.19247 -8.58242,-4.49443 0,-1.36235 9.89483,-6.2448 21.15216,-10.43722 11.06081,-4.11924 14.89059,-4.85976 8.63899,-1.67044 -7.6787,3.91739 -7.17666,10.55803 1.10486,14.61409 6.01279,2.94489 15.44501,3.49684 58.61023,3.42971 43.85915,-0.0682 56.49113,-0.66241 82.28151,-3.8705 9.05097,-1.12585 16.99816,-2.03042 17.66043,-2.01015 2.29486,0.0702 -5.11422,2.34637 -10.37147,3.1862 -2.90515,0.46409 -7.99136,1.3495 -11.30269,1.96758 -9.87258,1.84277 -17.30777,2.79714 -21.82879,2.80189 -2.34325,0.002 -5.5248,0.34853 -7.07008,0.76904 -4.84943,1.31966 -56.19522,3.38698 -68.23346,2.74726 z"
         id="path4307" /><path
         style="fill:#00849a;fill-opacity:1;stroke-width:0.567627"
         d="m 631.61732,439.62749 c 0.38994,-0.62439 1.04914,-1.13525 1.46489,-1.13525 0.94686,0 15.4322,-14.19753 15.4322,-15.12558 0,-0.37449 0.60885,-1.40446 1.353,-2.28883 3.01046,-3.57773 5.42918,-9.05859 6.34272,-14.37273 1.03545,-6.02326 0.11784,-16.08039 -1.6515,-18.10061 -0.44071,-0.5032 -0.96745,-1.46134 -1.17054,-2.1292 -0.20309,-0.66786 -2.28242,-3.09446 -4.62074,-5.39246 -3.10692,-3.05334 -5.43241,-4.74528 -8.63802,-6.28469 -2.68149,-1.28771 -3.89631,-2.1151 -3.12535,-2.1286 1.85033,-0.0324 12.27089,2.29533 12.90112,2.88184 0.29659,0.27601 0.99014,0.50184 1.54122,0.50184 0.55109,0 1.84103,0.73183 2.86652,1.62629 1.0255,0.89447 2.4278,1.80205 3.11622,2.01686 2.00258,0.62487 5.92964,5.45835 8.5399,10.51101 2.36667,4.58117 2.41241,4.77748 2.41241,10.35418 0,4.58731 -0.20096,5.97528 -1.0412,7.19117 -0.57267,0.82868 -1.47427,2.61641 -2.00356,3.97273 -3.76167,9.63938 -14.26663,19.26364 -29.71247,27.22148 -4.13346,2.12959 -5.00411,2.27747 -4.00682,0.68055 z"
         id="path4309" /><path
         style="fill:#00849a;fill-opacity:1;stroke-width:0.283814"
         d="m 489.28141,455.12842 c -0.0958,-0.0962 -2.68632,-0.25734 -5.75665,-0.358 -3.07033,-0.10066 -6.22099,-0.33062 -7.00148,-0.51102 -0.78049,-0.1804 -2.24922,-0.38555 -3.26386,-0.45588 -7.44011,-0.5157 -10.4294,-0.80075 -10.88294,-1.03776 -0.28806,-0.15053 -1.35588,-0.2673 -2.37293,-0.2595 -1.31445,0.0101 -2.17267,-0.15084 -2.96789,-0.55653 -0.83595,-0.42647 -1.88252,-0.60644 -4.14053,-0.71203 -1.66199,-0.0777 -3.60295,-0.31825 -4.31323,-0.53451 -4.30459,-1.31066 -5.31033,-1.56793 -6.12931,-1.56793 -0.50094,0 -1.0698,-0.19158 -1.26412,-0.42573 -0.19432,-0.23414 -0.72591,-0.42572 -1.18131,-0.42572 -0.4554,0 -1.32869,-0.25543 -1.94064,-0.56762 -0.61195,-0.3122 -1.4086,-0.56763 -1.77033,-0.56763 -0.36173,0 -0.94154,-0.19882 -1.28847,-0.44182 -0.34693,-0.24299 -0.63078,-0.36159 -0.63078,-0.26354 0,0.0981 -0.20187,-0.0236 -0.4486,-0.27033 -0.24673,-0.24673 -0.56602,-0.37603 -0.70954,-0.28733 -0.14351,0.0887 -0.26093,0.0385 -0.26093,-0.11154 0,-0.15004 -0.35122,-0.41366 -0.78049,-0.58584 -2.71183,-1.08767 -6.0001,-3.40472 -7.07338,-4.98419 -0.63503,-0.93454 -0.64936,-1.04719 -0.25361,-1.99436 0.43547,-1.04222 4.71139,-5.53555 5.26771,-5.53555 0.45651,0 2.85147,-1.11485 3.73503,-1.73864 1.04434,-0.73731 1.42346,-0.68085 1.20744,0.17983 -0.10758,0.42864 0.0147,1.11902 0.30736,1.73583 0.26729,0.56328 0.57817,1.70348 0.69085,2.53379 0.11267,0.83031 0.3777,1.71792 0.58896,1.97246 0.52313,0.63033 1.82583,1.27682 2.57287,1.27682 0.33806,0 1.21086,0.43765 1.93956,0.97257 0.7287,0.53491 1.70368,1.06344 2.16663,1.17449 0.46294,0.11106 0.96943,0.27646 1.12553,0.36757 0.57005,0.33269 6.66903,1.15167 7.16991,0.96278 0.19711,-0.0743 0.54167,0.017 0.76569,0.20289 0.64843,0.53814 3.48435,0.95601 6.25509,0.92167 4.09295,-0.0507 12.12274,0.52408 12.90914,0.92408 0.41917,0.21321 2.2372,0.4191 4.40349,0.49869 2.53113,0.093 4.03464,0.28235 4.78854,0.60308 0.97058,0.4129 2.72856,0.46752 15.04784,0.46752 13.07687,0 14.07692,-0.0355 15.99722,-0.56763 1.45281,-0.40259 2.92035,-0.56762 5.04756,-0.56762 2.47439,0 3.23239,-0.10741 4.33175,-0.61378 1.20648,-0.55571 1.88301,-0.62115 7.15073,-0.69161 6.03018,-0.0807 8.452,-0.32447 9.17381,-0.92351 0.24357,-0.20215 0.7258,-0.27351 1.14211,-0.16902 0.39631,0.0995 0.86984,0.0886 1.05229,-0.0242 0.34589,-0.21377 0.8895,-0.25808 6.89826,-0.56222 2.6395,-0.13361 4.00147,-0.33539 4.91932,-0.72882 0.78189,-0.33516 1.9245,-0.54407 2.97574,-0.54407 1.22404,0 1.92147,-0.15307 2.46686,-0.54142 0.87695,-0.62445 3.45679,-1.16146 5.57969,-1.16146 0.80588,0 1.84926,-0.19158 2.31861,-0.42572 0.46936,-0.23414 1.62485,-0.50635 2.56776,-0.60491 l 1.7144,-0.17918 2.39505,2.41671 c 2.02495,2.04327 2.58005,2.44798 3.5923,2.61899 0.65848,0.11126 1.44937,0.4729 1.75752,0.80366 l 0.56027,0.60138 -1.02361,0.52514 c -0.91621,0.47005 -1.94234,0.71706 -6.72266,1.61829 -0.74044,0.1396 -1.63095,0.45322 -1.9789,0.69693 -0.40459,0.28339 -1.25323,0.44312 -2.35426,0.44312 -1.1613,0 -2.084,0.18474 -2.835,0.56763 -0.61236,0.31219 -1.44989,0.56762 -1.8612,0.56762 -0.4113,0 -1.11867,0.17898 -1.57192,0.39773 -0.45325,0.21875 -2.02871,0.47174 -3.50101,0.5622 -1.47231,0.0905 -3.7712,0.42674 -5.10865,0.74728 -1.33745,0.32055 -2.94259,0.6988 -3.56698,0.84055 -0.62439,0.14176 -3.02917,0.32985 -5.34395,0.41799 -2.31479,0.0881 -4.44061,0.28437 -4.72406,0.43607 -1.67054,0.89405 -10.88201,2.00198 -16.5798,1.99417 -2.48069,-0.003 -4.65186,0.10997 -4.82484,0.25194 -0.52488,0.43078 -1.95018,0.54292 -10.9575,0.8621 -13.98345,0.49552 -15.01466,0.51822 -15.19753,0.33458 z"
         id="path4311" /><path
         style="fill:#00849a;fill-opacity:1;stroke-width:0.283814"
         d="m 490.57206,502.40976 c -0.54634,-0.16959 -1.0572,-0.38006 -1.13525,-0.4677 -0.078,-0.0877 -0.52506,-0.17435 -0.99335,-0.19268 -0.46829,-0.0183 -3.06429,-0.11113 -5.76887,-0.20621 -4.54216,-0.15968 -6.85945,-0.41871 -9.41517,-1.05243 -0.54634,-0.13548 -1.8235,-0.31392 -2.83813,-0.39655 -1.01464,-0.0826 -2.54723,-0.41019 -3.40577,-0.72792 -0.85854,-0.31774 -2.51885,-0.77753 -3.68958,-1.02175 -1.17073,-0.24423 -2.25632,-0.54509 -2.41241,-0.66858 -0.1561,-0.12349 -0.9224,-0.29529 -1.70289,-0.38177 -1.43981,-0.15954 -3.81865,-0.84113 -4.79086,-1.37268 -0.29351,-0.16048 -0.86588,-0.35202 -1.27192,-0.42565 -0.40605,-0.0736 -1.13885,-0.38145 -1.62845,-0.68404 -0.4896,-0.30259 -1.06668,-0.55343 -1.2824,-0.55742 -0.21572,-0.004 -1.08874,-0.45101 -1.94004,-0.99335 -0.85131,-0.54235 -1.8486,-0.98609 -2.2162,-0.98609 -0.36761,0 -1.15075,-0.38764 -1.74031,-0.86143 -0.58957,-0.47378 -1.56355,-0.99717 -2.16441,-1.16307 -1.69667,-0.46847 -2.36821,-1.04979 -3.12562,-2.70566 -0.38506,-0.84181 -0.7001,-1.64385 -0.7001,-1.78231 0,-0.13846 -0.13956,-0.29827 -0.31014,-0.35513 -0.44649,-0.14883 -0.4453,-2.20677 10e-4,-2.48286 0.20487,-0.12662 1.30301,-1.13976 2.4403,-2.25141 1.13729,-1.11165 2.21026,-2.02119 2.38437,-2.02119 0.17411,0 0.53834,-0.1111 0.80939,-0.2469 1.85592,-0.92984 3.29883,-1.45444 3.4634,-1.25919 0.10613,0.12591 0.43905,0.98069 0.7398,1.89951 0.66606,2.03484 1.95207,3.17873 4.66213,4.14692 1.01463,0.36249 2.03636,0.81212 2.27051,0.99919 0.62912,0.50263 3.18981,0.9723 6.2439,1.14521 1.88017,0.10645 3.02101,0.32055 3.76927,0.70735 0.67827,0.35063 1.64025,0.5547 2.61477,0.5547 0.8725,0 2.16685,0.2464 2.98182,0.56763 1.29189,0.50921 2.10931,0.56762 7.94344,0.56762 4.86514,0 6.91509,0.10725 8.13782,0.42573 2.40662,0.62684 27.01843,0.62684 29.42506,0 1.18903,-0.30971 3.18039,-0.42573 7.30715,-0.42573 5.78341,0 7.07365,-0.1669 12.03797,-1.55725 1.65794,-0.46434 6.88035,-1.07574 7.24797,-0.84854 0.13862,0.0857 1.04417,-0.10427 2.01232,-0.4221 0.96816,-0.31783 2.47994,-0.57787 3.35953,-0.57787 0.87959,0 1.7506,-0.15135 1.93559,-0.33634 0.20346,-0.20346 1.62025,-0.38549 3.58611,-0.46073 2.98749,-0.11436 3.3116,-0.0758 4.0159,0.47824 0.42137,0.33146 0.91045,0.60264 1.08683,0.60264 0.46571,0 2.4017,1.07664 3.09137,1.71916 0.32549,0.30324 0.70807,0.55135 0.85017,0.55135 0.32414,0 2.00222,0.71284 3.38041,1.43599 0.57727,0.30289 1.2058,0.55071 1.39673,0.55071 0.19093,0 0.54877,0.17996 0.79521,0.39991 0.24644,0.21996 1.07374,0.73082 1.83845,1.13526 0.76472,0.40444 1.1747,0.73534 0.91109,0.73534 -0.26361,0 -0.97999,0.25543 -1.59194,0.56763 -0.61195,0.31219 -1.47503,0.56762 -1.91795,0.56762 -0.44291,0 -1.66995,0.4428 -2.72674,0.98399 -1.05679,0.54119 -2.51944,1.10786 -3.25034,1.25926 -0.73091,0.15141 -2.22293,0.5383 -3.31561,0.85976 -1.09269,0.32146 -2.55936,0.7199 -3.25928,0.88541 -0.69991,0.16552 -1.46952,0.47918 -1.71023,0.69701 -0.27608,0.24985 -1.2208,0.41922 -2.55891,0.45875 -1.16669,0.0345 -2.59538,0.22479 -3.17487,0.42293 -0.57949,0.19815 -1.77838,0.49425 -2.66421,0.658 -0.88583,0.16375 -1.79753,0.45288 -2.02601,0.6425 -0.22848,0.18962 -0.56218,0.37033 -0.74155,0.40156 -2.86253,0.49853 -4.23391,0.674 -5.29288,0.67722 -0.70244,0.002 -1.61016,0.17766 -2.01715,0.39003 -0.407,0.21237 -1.38144,0.38613 -2.16543,0.38613 -0.78399,0 -1.54101,0.0714 -1.68227,0.15873 -0.14125,0.0873 -2.93444,0.25328 -6.20707,0.36884 -3.27264,0.11557 -6.23761,0.22082 -6.58883,0.23388 -0.35122,0.0131 -0.63859,0.14084 -0.63859,0.28393 0,0.14309 -0.0801,0.18011 -0.17788,0.0823 -0.0978,-0.0978 -0.53851,0.009 -0.97926,0.23651 -0.66788,0.34538 -2.77739,0.40958 -12.66468,0.38543 -7.6574,-0.0187 -12.21549,-0.13829 -12.85667,-0.33732 z"
         id="path4313" /><path
         style="fill:#00849a;fill-opacity:1;stroke-width:0.283814"
         d="m 478.08426,544.62435 c -0.85113,-0.24378 -3.31267,-0.37326 -7.37916,-0.38815 -6.6689,-0.0244 -26.17783,-1.01334 -28.64636,-1.45211 -0.84818,-0.15076 -2.44463,-0.27633 -3.54767,-0.27904 -1.10304,-0.003 -2.89954,-0.20665 -3.99222,-0.4532 -1.32598,-0.29919 -3.87446,-0.4834 -7.66297,-0.55388 -3.12196,-0.0581 -7.40045,-0.30439 -9.50776,-0.54734 -2.10732,-0.24296 -5.30023,-0.56276 -7.09535,-0.71067 -5.51883,-0.45473 -8.28005,-0.85439 -8.8992,-1.28805 -0.37552,-0.26303 -1.282,-0.41532 -2.47207,-0.41532 -1.14792,0 -2.52936,-0.22372 -3.55018,-0.57494 -1.34477,-0.46266 -2.44798,-0.58065 -5.64976,-0.6042 -2.18827,-0.0161 -4.42568,-0.13509 -4.97203,-0.26442 -0.54634,-0.12932 -2.00813,-0.49231 -3.24843,-0.80663 -1.2403,-0.31432 -2.31414,-0.51245 -2.3863,-0.44028 -0.0722,0.0722 -0.2826,0.006 -0.46762,-0.14797 -0.18502,-0.15355 -1.64991,-0.34658 -3.25532,-0.42894 -1.6054,-0.0824 -3.05423,-0.23339 -3.21962,-0.3356 -0.16539,-0.10222 -0.94728,-0.34732 -1.73754,-0.54467 -0.79026,-0.19735 -1.94769,-0.55256 -2.57208,-0.78936 -0.62439,-0.2368 -1.80577,-0.43615 -2.62528,-0.443 -0.81951,-0.007 -1.49032,-0.10824 -1.49067,-0.22532 -5.5e-4,-0.17822 -2.13493,-1.27674 -3.68893,-1.89862 -1.39622,-0.55873 -2.70947,-1.56485 -3.16543,-2.42511 -1.23442,-2.32899 -0.30572,-4.19351 4.04199,-8.11498 1.29261,-1.16589 2.48389,-1.92301 3.19696,-2.03183 0.32162,-0.0491 0.65417,-0.19369 0.73899,-0.32135 0.19802,-0.29802 3.08467,-1.74026 3.48313,-1.74026 0.16622,0 0.84773,-0.447 1.51447,-0.99334 0.66674,-0.54635 1.4322,-0.99335 1.70102,-0.99335 0.44777,0 2.50675,-0.84813 3.531,-1.45448 0.56215,-0.33278 0.76508,-0.40054 2.27051,-0.75808 0.70244,-0.16682 1.50066,-0.38949 1.77383,-0.49482 0.37646,-0.14514 0.49668,-0.0468 0.49668,0.4065 0,0.3289 -0.10455,0.59799 -0.23232,0.59799 -0.4933,0 -2.88963,3.71031 -2.88963,4.4741 0,0.42911 -0.11656,1.18661 -0.25901,1.68332 -0.35738,1.24608 0.21242,3.0251 1.32931,4.15039 0.49285,0.49656 1.42698,1.45092 2.07585,2.12081 1.28046,1.32191 2.67657,2.13874 4.22884,2.47419 0.54405,0.11757 1.28363,0.40669 1.64351,0.64249 0.35987,0.2358 1.1919,0.54076 1.84895,0.67769 1.80445,0.37604 1.8727,0.39596 2.08516,0.60842 0.10858,0.10858 0.4635,0.20148 0.7887,0.20645 0.3252,0.005 0.83919,0.19653 1.1422,0.42572 0.303,0.22918 0.87962,0.41669 1.28136,0.41669 0.40175,0 1.20703,0.25543 1.78952,0.56763 0.67556,0.36208 1.59901,0.56712 2.55012,0.56622 0.82008,-7.6e-4 2.06577,0.18067 2.76821,0.4032 3.70743,1.17449 4.96948,1.41864 8.23195,1.5925 1.95196,0.10402 3.99542,0.33549 4.54102,0.51436 4.125,1.35236 6.46659,1.70191 11.63502,1.73686 3.39299,0.0229 4.52511,0.12505 4.95003,0.44644 0.36005,0.27233 1.22531,0.41669 2.49746,0.41669 1.31617,0 2.24069,0.16049 2.85485,0.49556 0.80855,0.44113 2.17367,0.51126 12.4303,0.63858 9.67649,0.12012 11.60404,0.21121 12.03413,0.56875 0.42099,0.34996 2.05751,0.4532 9.1964,0.58017 5.34436,0.0951 9.03904,0.27846 9.60672,0.47688 1.27602,0.44601 29.06093,0.4812 31.43232,0.0398 0.93659,-0.17433 6.18551,-0.39665 11.66428,-0.49405 8.2514,-0.14669 10.04933,-0.25017 10.47362,-0.60281 0.43313,-0.35999 2.53249,-0.44815 13.59514,-0.57092 11.61631,-0.12892 13.20612,-0.20051 14.18189,-0.63858 0.83188,-0.37348 1.86842,-0.49339 4.26501,-0.49339 2.23277,0 3.33107,-0.11548 3.72587,-0.39177 0.42281,-0.2959 2.19215,-0.42448 7.22945,-0.52537 5.51621,-0.11048 6.86281,-0.21899 7.78675,-0.62745 0.61442,-0.27163 2.08316,-0.5633 3.26386,-0.64817 1.1807,-0.0849 2.38298,-0.27612 2.67173,-0.42499 0.28875,-0.14887 2.31442,-0.32581 4.50148,-0.3932 4.71004,-0.14512 5.36856,-0.22066 7.00033,-0.80303 0.68304,-0.24377 1.91222,-0.44322 2.7315,-0.44322 0.81929,0 2.03259,-0.19158 2.69623,-0.42572 0.72513,-0.25584 2.21207,-0.42572 3.72629,-0.42572 1.97744,0 2.74758,-0.12216 3.57874,-0.56763 0.58249,-0.3122 1.38026,-0.56842 1.77281,-0.56938 0.39256,-9.6e-4 1.06678,-0.1859 1.49827,-0.41099 0.81094,-0.42301 4.03897,-0.67655 4.37212,-0.34339 0.10368,0.10368 -0.12014,0.19134 -0.49738,0.19481 -0.37723,0.003 -1.00517,0.25607 -1.39542,0.56132 -0.51376,0.40188 -1.16008,0.55675 -2.34249,0.56132 -1.08071,0.004 -1.99112,0.19827 -2.69203,0.57394 -0.58248,0.31219 -1.38777,0.56762 -1.78951,0.56762 -0.40174,0 -0.97836,0.18752 -1.28136,0.4167 -0.33529,0.25359 -1.21744,0.42266 -2.25381,0.43195 -1.06137,0.01 -2.16896,0.22675 -2.94008,0.57666 -0.68046,0.30876 -1.49132,0.56139 -1.8019,0.56139 -0.31058,0 -0.96714,0.1859 -1.45903,0.4131 -0.49188,0.22721 -2.04378,0.53585 -3.44865,0.68588 -1.40488,0.15002 -3.76763,0.61279 -5.25056,1.02837 -1.99442,0.55893 -3.70208,0.80637 -6.56056,0.95063 -2.62098,0.13227 -4.01622,0.32109 -4.33642,0.58683 -0.28539,0.23685 -1.51793,0.45953 -3.11651,0.56305 -1.45578,0.0943 -2.83784,0.33181 -3.07475,0.52846 -0.54568,0.45294 -2.83164,0.87675 -6.54108,1.21269 -1.599,0.14481 -3.73742,0.3802 -4.75205,0.52308 -4.97599,0.70073 -7.68625,0.9185 -9.39922,0.75527 -2.00049,-0.19064 -7.30588,0.23977 -9.19058,0.7456 -0.62439,0.16758 -2.42483,0.32153 -4.00098,0.34212 -1.63721,0.0214 -3.0364,0.17412 -3.26386,0.35629 -0.51001,0.40846 -9.98444,0.92984 -22.99386,1.26535 -5.52357,0.14246 -11.25616,0.37508 -12.73909,0.51694 -4.27915,0.40937 -23.15678,0.31098 -24.69179,-0.12869 z"
         id="path4315" /><path
         style="fill:#00849a;fill-opacity:1;stroke-width:0.283814"
         d="m 526.31117,564.33142 c 0.37846,-0.14847 2.86893,-0.31058 5.53437,-0.36024 2.66544,-0.0497 5.49647,-0.22619 6.29118,-0.39231 0.80207,-0.16765 5.09524,-0.31745 9.64966,-0.3367 6.34611,-0.0268 8.62266,-0.13465 10.04954,-0.47602 1.01463,-0.24274 2.7388,-0.56317 3.83149,-0.71207 1.09268,-0.1489 2.60362,-0.46536 3.35764,-0.70325 0.91556,-0.28885 3.37572,-0.50913 7.40638,-0.66316 4.13935,-0.15819 6.24978,-0.35032 6.71774,-0.61158 0.73046,-0.40782 2.68808,-0.64679 8.77101,-1.07068 2.10731,-0.14685 4.40621,-0.45567 5.10865,-0.68628 0.70243,-0.23061 2.07585,-0.44038 3.05203,-0.46616 0.97618,-0.0258 2.18948,-0.21398 2.69623,-0.41821 0.50675,-0.20423 2.13466,-0.52495 3.61759,-0.71271 1.48293,-0.18776 3.20709,-0.45851 3.83148,-0.60167 0.62439,-0.14315 2.92329,-0.58931 5.10865,-0.99147 5.15411,-0.94848 12.58892,-2.5213 16.17739,-3.4223 4.43325,-1.11311 13.85277,-3.79504 14.40395,-4.1011 0.27339,-0.1518 1.01991,-0.3417 1.65893,-0.42199 0.63902,-0.0803 1.33501,-0.31914 1.54664,-0.53077 0.21164,-0.21164 0.86348,-0.4746 1.44853,-0.58435 0.58505,-0.10976 1.32218,-0.38058 1.63805,-0.60183 0.31588,-0.22125 1.12512,-0.40227 1.79832,-0.40227 1.14725,0 1.20441,0.0366 0.91163,0.58366 -0.1718,0.32101 -0.52751,0.65237 -0.79047,0.73635 -0.26296,0.084 -1.37213,0.59982 -2.46481,1.14632 -1.09268,0.54649 -2.30202,1.05286 -2.68741,1.12526 -0.3854,0.0724 -0.83396,0.2422 -0.9968,0.37735 -0.34076,0.2828 -3.26951,1.40401 -4.53934,1.73778 -0.47217,0.12411 -1.61122,0.49505 -2.53122,0.82432 -0.92,0.32926 -2.37683,0.72882 -3.23739,0.88791 -0.86057,0.15908 -1.85118,0.47697 -2.20137,0.70642 -0.45236,0.2964 -0.66829,0.32244 -0.74579,0.0899 -0.0784,-0.23523 -0.40562,-0.20335 -1.16359,0.11335 -0.57999,0.24233 -1.0584,0.35133 -1.06315,0.24223 -0.005,-0.10911 -0.13461,0.0176 -0.28858,0.28162 -0.17227,0.29537 -0.79667,0.54406 -1.6233,0.64656 -0.73884,0.0916 -1.91807,0.34506 -2.62051,0.56322 -0.70244,0.21817 -1.91574,0.49239 -2.69623,0.60938 -0.78048,0.11699 -1.48292,0.22422 -1.56097,0.23828 -0.078,0.0141 -0.28682,0.11784 -0.46394,0.23061 -0.17712,0.11276 -1.13499,0.3226 -2.1286,0.46629 -0.99362,0.14369 -2.18591,0.40822 -2.64955,0.58784 -1.50093,0.58148 -5.04224,1.18523 -8.25225,1.4069 -2.25202,0.15551 -3.35377,0.35975 -3.9113,0.72506 -0.42689,0.2797 -0.84373,0.44099 -0.92631,0.35841 -0.0826,-0.0826 -0.81296,0.0301 -1.62307,0.25032 -0.81011,0.22027 -3.52555,0.52297 -6.03432,0.67269 -2.73939,0.16348 -4.95471,0.43654 -5.54603,0.68361 -0.54155,0.22627 -1.93725,0.43603 -3.10157,0.46612 -1.36152,0.0352 -2.37014,0.21519 -2.82648,0.50441 -0.584,0.37013 -1.96369,0.47087 -7.79811,0.5694 -5.1554,0.0871 -7.24524,0.22025 -7.66298,0.4884 -0.43633,0.28009 -4.18979,0.44154 -15.61651,0.67173 -8.27317,0.16666 -17.40488,0.35754 -20.29269,0.42418 -3.49225,0.0806 -5.02012,0.0308 -4.56244,-0.1488 z"
         id="path4317" /><path
         style="fill:#00849a;fill-opacity:1;stroke-width:0.567627"
         d="m 727.41463,788.46505 c 0,-0.82907 1.90439,-5.1611 3.38208,-7.69343 0.82166,-1.40809 2.2942,-4.95893 2.2942,-5.53218 0,-0.29468 0.51086,-0.9981 1.13525,-1.56317 0.62439,-0.56506 1.13526,-1.47796 1.13526,-2.02867 0,-0.5507 0.35469,-1.72442 0.78819,-2.60825 0.43351,-0.88384 2.74086,-5.63004 5.12744,-10.54711 2.38658,-4.91707 4.55853,-8.94013 4.82654,-8.94013 0.26802,0 0.65855,-0.68229 0.86784,-1.51618 0.2093,-0.8339 0.87557,-2.14551 1.48061,-2.91469 0.60504,-0.76918 1.10007,-1.85985 1.10007,-2.42371 0,-0.56387 0.25731,-1.18424 0.57181,-1.37861 0.3145,-0.19437 1.11157,-1.42275 1.77128,-2.72973 0.6597,-1.30698 1.82021,-3.61522 2.5789,-5.12941 0.7587,-1.5142 2.0593,-3.81309 2.89023,-5.10865 1.80417,-2.81302 2.57192,-4.16907 5.42833,-9.58797 1.1945,-2.26608 2.6377,-4.63101 3.2071,-5.2554 0.99268,-1.08854 2.30076,-3.41034 4.30969,-7.64956 0.51431,-1.08531 1.35628,-2.36247 1.87103,-2.83814 2.9675,-2.74217 3.43903,-8.07175 1.02515,-11.58708 -0.83383,-1.21429 -1.51605,-2.53571 -1.51605,-2.93649 0,-0.40077 -0.59291,-1.45072 -1.31759,-2.3332 -0.72467,-0.88249 -2.80257,-4.41429 -4.61756,-7.84843 -1.815,-3.43415 -3.52097,-6.32905 -3.79107,-6.43311 -0.27009,-0.10407 -0.49108,-0.72619 -0.49108,-1.38249 0,-0.6563 -0.49333,-1.7206 -1.0963,-2.36511 -0.60296,-0.64452 -2.56054,-3.9816 -4.35018,-7.41575 -5.38729,-10.33767 -19.88657,-39.17638 -20.28473,-40.3458 -0.20431,-0.60005 -1.00469,-2.24045 -1.77864,-3.64533 -0.77394,-1.40488 -1.41436,-2.87361 -1.42316,-3.26386 -0.0123,-0.54614 2.79751,-0.70953 12.20205,-0.70953 h 12.21804 l 0.58424,1.56098 c 2.1774,5.8176 14.03358,30.37504 14.82138,30.69918 0.25292,0.10407 0.45985,0.56113 0.45985,1.0157 0,1.06719 7.29163,15.32845 8.23947,16.11509 0.39624,0.32885 1.0527,1.4196 1.45881,2.42388 0.40611,1.00428 0.89826,1.95368 1.09367,2.10978 0.19541,0.1561 1.3209,2.25322 2.50108,4.66026 2.52932,5.15869 3.04854,5.67056 5.75205,5.67056 2.21934,0 4.50745,-1.67201 5.13311,-3.75098 0.19653,-0.65306 0.94378,-1.82596 1.66055,-2.60645 0.71676,-0.78048 2.13544,-3.20709 3.15262,-5.39246 1.01717,-2.18536 2.44549,-4.53592 3.17404,-5.22345 0.72854,-0.68753 1.32463,-1.75804 1.32463,-2.37891 0,-0.62088 0.22381,-1.26718 0.49735,-1.43624 0.61847,-0.38224 12.7523,-24.79365 15.96264,-32.11439 1.3006,-2.96585 3.03575,-6.73348 3.85588,-8.37251 l 1.49114,-2.98004 h 10.38252 c 5.71039,0 10.38253,0.1568 10.38253,0.34844 0,0.19164 -0.48234,1.27722 -1.07186,2.41241 -0.58953,1.13519 -1.39792,3.15323 -1.79642,4.48453 -0.39851,1.33129 -1.06561,2.70359 -1.48246,3.04954 -0.41685,0.34596 -0.75791,0.93128 -0.75791,1.30072 0,0.7395 -5.36337,11.34893 -11.42692,22.60392 -2.14446,3.98048 -5.71949,10.62173 -7.94451,14.75831 -2.22502,4.13659 -4.48844,8.03193 -5.02983,8.65632 -0.54138,0.62439 -1.81042,2.79557 -2.8201,4.82483 -1.00967,2.02927 -2.25845,4.16221 -2.77506,4.73986 -0.5166,0.57764 -1.45014,2.01925 -2.07453,3.20357 -0.62439,1.18432 -1.64612,3.12195 -2.27051,4.30585 -0.62439,1.1839 -1.69959,2.72162 -2.38933,3.41716 -1.75658,1.77134 -2.14292,3.80249 -1.08792,5.71965 0.48511,0.88156 1.29771,2.48061 1.80575,3.55346 0.50806,1.07284 1.51083,2.73315 2.22839,3.68958 0.71755,0.95642 2.11089,3.27154 3.0963,5.14471 0.9854,1.87317 2.20427,4.17206 2.70859,5.10865 0.50431,0.93658 1.06725,1.98396 1.25097,2.3275 0.18372,0.34354 0.99145,1.6207 1.79495,2.83814 0.80351,1.21743 2.31038,3.87383 3.34861,5.90309 1.03823,2.02927 2.15338,4.20045 2.47811,4.82484 0.32473,0.62439 1.03762,2.04917 1.58419,3.16618 0.54658,1.11702 1.32833,2.31282 1.73724,2.65734 0.69463,0.58525 23.29938,45.84735 24.44783,48.95253 0.28866,0.78049 0.87247,2.12151 1.29737,2.98005 l 0.77253,1.56097 h -3.28871 c -1.80879,0 -7.57103,-0.16889 -12.805,-0.37531 l -9.51629,-0.37531 -3.69587,-7.71339 c -2.03274,-4.24235 -3.92264,-8.09652 -4.1998,-8.56481 -0.27715,-0.4683 -1.16331,-2.25632 -1.96924,-3.9734 -0.80592,-1.71707 -1.74841,-3.63281 -2.09442,-4.2572 -0.346,-0.62439 -1.96056,-3.71868 -3.58791,-6.8762 -1.62735,-3.15753 -3.27799,-6.35043 -3.66811,-7.09535 -1.17366,-2.24111 -1.78034,-3.44234 -3.83752,-7.5983 -1.08175,-2.18536 -2.28004,-4.35654 -2.66286,-4.82483 -0.81098,-0.99204 -3.08212,-4.99105 -5.80254,-10.21707 -1.05628,-2.02915 -2.38612,-4.20032 -2.95521,-4.82484 -0.56908,-0.62451 -1.45428,-1.96563 -1.96711,-2.98026 -0.84117,-1.66427 -1.17902,-1.84479 -3.45241,-1.84479 -3.04488,0 -5.91111,2.2047 -7.63935,5.87619 -2.50189,5.31502 -7.44761,14.24363 -8.52516,15.39062 -0.63431,0.6752 -1.15498,1.59433 -1.15704,2.0425 -0.002,0.44817 -0.51124,1.58115 -1.13152,2.51774 -0.62027,0.93658 -1.12945,2.12256 -1.13151,2.6355 -0.002,0.51294 -0.38689,1.07964 -0.85518,1.25935 -0.4683,0.1797 -0.85144,0.81116 -0.85144,1.40325 0,0.59208 -0.51087,1.72598 -1.13526,2.51976 -0.62439,0.79378 -1.13525,1.81868 -1.13525,2.27755 0,0.45888 -0.36673,1.13867 -0.81496,1.51067 -0.44822,0.37199 -0.97551,1.40735 -1.17174,2.30079 -0.19623,0.89344 -0.72352,1.9288 -1.17174,2.30079 -0.44823,0.372 -0.81496,1.12149 -0.81496,1.66556 0,0.54406 -0.46754,1.59837 -1.03897,2.34291 -0.57144,0.74454 -1.36957,2.56216 -1.77364,4.03916 -0.40406,1.47699 -1.08596,2.97701 -1.51534,3.33336 -0.42938,0.35635 -0.78069,1.02424 -0.78069,1.48418 0,0.45995 -0.36221,1.51426 -0.80491,2.34291 -1.29432,2.42277 -4.13598,8.71683 -4.90876,10.87251 -0.3917,1.09268 -0.86282,2.15269 -1.04693,2.35559 -0.18411,0.20289 -5.25182,0.5517 -11.26158,0.77514 -10.00965,0.37215 -10.92683,0.32632 -10.92683,-0.54595 z"
         id="path4319" /><path
         style="fill:#00849a;fill-opacity:1;stroke-width:0.567627"
         d="m 627.5122,701.09527 v -88.34139 h 41.4368 41.43681 v 7.94679 7.94678 h -28.86103 c -27.23921,0 -28.91381,0.0583 -29.80044,1.03804 -0.84909,0.93824 -0.93942,3.9108 -0.93942,30.91573 0,28.95825 0.0338,29.89577 1.09794,30.46529 0.70532,0.37747 9.48436,0.59036 24.54989,0.59534 12.89857,0.005 24.02667,0.16177 24.72911,0.35002 1.24526,0.33372 1.27717,0.5356 1.27747,8.08094 l 3e-4,7.73868 -20.86062,-0.17885 c -20.78575,-0.17821 -28.12177,0.0805 -29.68635,1.04707 -0.70287,0.43419 -0.86562,6.30136 -1.10774,39.93304 -0.1561,21.68324 -0.41153,39.54811 -0.56763,39.69972 -0.15609,0.15161 -5.3286,0.46207 -11.49445,0.68992 l -11.21064,0.41427 z"
         id="path4321" /><path
         style="fill:#00849a;fill-opacity:1;stroke-width:0.567627"
         d="m 507.07916,790.42061 c -11.28804,-1.95795 -18.38441,-6.66968 -23.11839,-15.34977 -1.9315,-3.54155 -2.95144,-8.58029 -3.29119,-16.25928 -0.32259,-7.2912 -0.28427,-7.63264 1.47624,-13.15132 1.21956,-3.82299 2.72968,-7.05061 4.64295,-9.92353 2.91781,-4.38132 6.75155,-8.32208 8.09607,-8.32208 0.419,0 1.24842,-0.54088 1.84315,-1.20197 0.59473,-0.66109 3.38021,-2.28639 6.18997,-3.61178 7.00667,-3.30512 8.13409,-3.7407 11.06874,-4.2764 1.40487,-0.25645 4.21463,-0.85187 6.2439,-1.32316 7.06448,-1.64069 12.27338,-2.18768 23.27273,-2.44387 12.60131,-0.29351 12.95583,-0.33784 14.68336,-1.83612 1.22898,-1.06589 1.26137,-1.36181 1.01137,-9.23941 -0.34004,-10.71455 -0.64735,-12.41608 -3.21263,-17.78791 -5.20981,-10.90959 -12.93382,-13.87625 -34.18911,-13.13144 -9.41417,0.32989 -12.5097,0.68857 -17.45929,2.02302 -1.09268,0.2946 -3.26386,0.83884 -4.82483,1.20943 -1.56098,0.37058 -3.96571,1.03651 -5.34384,1.47984 -1.37813,0.44333 -2.79739,0.69412 -3.1539,0.55731 -0.99128,-0.38039 -2.9273,-8.75905 -2.26612,-9.80724 0.30061,-0.47656 0.69888,-0.78289 0.88504,-0.68074 0.18616,0.10216 0.71734,-0.12868 1.18039,-0.51298 1.49441,-1.24025 13.70447,-4.88459 22.03767,-6.57759 7.68781,-1.56188 13.2201,-2.0971 21.6374,-2.09329 12.05724,0.005 21.05558,1.78503 28.93305,5.72201 4.36912,2.18358 11.29572,9.1699 12.98934,13.10132 3.59684,8.3494 3.58634,8.17687 3.80344,62.49306 l 0.19681,49.24168 h -8.15592 -8.15592 l -0.36467,-3.48903 c -0.20057,-1.91896 -0.36468,-4.42512 -0.36468,-5.56924 0,-5.24186 -6.69298,-6.31646 -10.10156,-1.62185 -0.40464,0.5573 -1.93723,1.70381 -3.40576,2.54779 -1.46854,0.84399 -3.27924,1.9973 -4.02378,2.56292 -0.74454,0.56562 -1.79885,1.02839 -2.34291,1.02839 -0.54406,0 -1.30719,0.38315 -1.69584,0.85144 -0.38865,0.4683 -1.16493,0.85145 -1.72508,0.85145 -0.56015,0 -1.10359,0.23326 -1.20766,0.51835 -0.10406,0.28511 -2.4881,1.35952 -5.29786,2.3876 -4.93272,1.80488 -5.43116,1.87312 -14.4745,1.98167 -5.15122,0.0618 -10.5585,-0.0944 -12.01618,-0.34728 z m 29.46571,-14.52357 c 4.99453,-1.6657 11.49948,-4.64027 11.49948,-5.25843 0,-0.22672 1.34102,-1.13502 2.98004,-2.01846 1.63902,-0.88344 4.19335,-2.9838 5.67628,-4.66746 l 2.69623,-3.06122 V 744.79808 728.7047 l -1.49647,-1.49648 -1.49648,-1.49647 h -11.91882 c -11.05257,0 -14.46341,0.33723 -17.72682,1.75264 -0.62439,0.27082 -2.15698,0.61436 -3.40576,0.76343 -4.89654,0.58452 -11.07756,3.6929 -15.19881,7.64334 -4.41381,4.23087 -5.97645,8.58525 -6.13187,17.08671 -0.11891,6.50476 0.31144,9.81762 1.52743,11.7583 0.43325,0.69146 0.78773,1.61031 0.78773,2.04189 0,0.43158 1.46873,2.31198 3.26386,4.17866 4.82907,5.02158 8.37745,6.20745 19.0105,6.35329 4.56963,0.0627 6.29375,-0.17909 9.93348,-1.39297 z"
         id="path4323" /><path
         style="fill:#00849a;fill-opacity:1;stroke-width:0.567627"
         d="m 398.58739,788.9053 c -1.88813,-0.14065 -3.37302,-0.53552 -3.48074,-0.92562 -0.10333,-0.37419 -0.49932,-1.82979 -0.87998,-3.23467 -0.38066,-1.40488 -1.15472,-3.70377 -1.72012,-5.10865 -0.56541,-1.40487 -1.72193,-5.10864 -2.57005,-8.2306 -0.84812,-3.12195 -1.89525,-6.48757 -2.32695,-7.47915 -0.4317,-0.99159 -1.02021,-3.04364 -1.3078,-4.56012 -0.28759,-1.51647 -1.102,-4.28122 -1.8098,-6.14389 -0.70779,-1.86268 -1.31421,-3.64211 -1.34758,-3.95431 -0.0334,-0.31219 -0.26161,-1.07849 -0.50718,-1.70288 -0.93566,-2.37905 -2.68389,-8.187 -4.95493,-16.4612 -0.34275,-1.24878 -0.82548,-2.78137 -1.07272,-3.40576 -0.24724,-0.62439 -1.39502,-4.20045 -2.55061,-7.94679 -1.1556,-3.74634 -2.56324,-8.21641 -3.1281,-9.93348 -0.56486,-1.71707 -1.2093,-4.14368 -1.43209,-5.39246 -0.2228,-1.24878 -0.5812,-2.52594 -0.79645,-2.83814 -0.21525,-0.31219 -0.69464,-1.58935 -1.06531,-2.83813 -0.37067,-1.24878 -1.57295,-5.06975 -2.67175,-8.49105 -1.09879,-3.42129 -2.37627,-7.76364 -2.83885,-9.64966 -0.46258,-1.88603 -1.19925,-4.19544 -1.63704,-5.13202 -0.4378,-0.93659 -1.07271,-2.89559 -1.41093,-4.35335 -0.33822,-1.45775 -0.84128,-3.24578 -1.11792,-3.97339 -0.27664,-0.72761 -0.54366,-1.51095 -0.59337,-1.74075 -0.0497,-0.2298 -0.4662,-1.48295 -0.92551,-2.78477 -0.45931,-1.30183 -0.76852,-2.39097 -0.68714,-2.42032 0.0814,-0.0294 5.36348,0.0743 11.738,0.23045 l 11.59003,0.28381 0.71339,2.27051 c 0.39236,1.24878 1.26254,4.18626 1.93373,6.52772 0.6712,2.34146 1.57081,5.0235 1.99916,5.96009 0.42834,0.93658 1.3256,3.61862 1.99391,5.96009 0.66831,2.34146 1.81598,6.04523 2.55038,8.2306 0.7344,2.18536 1.72429,5.50598 2.19976,7.37915 0.47547,1.87317 2.53422,8.49593 4.57499,14.71723 2.04077,6.22131 3.71049,11.66737 3.71049,12.10235 0,0.43499 1.14644,4.15725 2.54764,8.27169 1.4012,4.11444 2.78124,8.63024 3.06675,10.03512 0.2855,1.40488 1.04702,4.59778 1.69225,7.09534 2.03903,7.89264 2.34303,9.33841 2.34303,11.14296 0,2.5883 3.93541,6.23347 6.10374,5.65357 1.24137,-0.332 1.76001,-1.0541 2.71401,-3.77864 0.64865,-1.85252 1.57047,-4.13452 2.04849,-5.0711 0.47801,-0.93659 1.582,-4.25721 2.4533,-7.37916 0.8713,-3.12195 2.04632,-6.95344 2.61114,-8.51441 0.98092,-2.71092 3.31147,-10.49483 4.58868,-15.32594 0.33014,-1.24879 0.94326,-3.29224 1.36248,-4.54102 0.41922,-1.24879 1.01825,-3.54768 1.33117,-5.10865 0.96216,-4.7996 1.80964,-8.35477 2.90918,-12.20399 0.97617,-3.41738 1.78042,-7.24018 2.86604,-13.62306 0.23894,-1.40488 0.73282,-3.70377 1.0975,-5.10865 0.76741,-2.95631 2.20516,-12.35958 2.64708,-17.31264 0.16713,-1.87317 0.53359,-3.83598 0.81436,-4.3618 0.28076,-0.52581 0.51048,-1.48368 0.51048,-2.1286 0,-0.64491 0.19158,-1.18094 0.42572,-1.19117 4.62441,-0.2021 22.8402,-0.18725 22.822,0.0186 -0.0936,1.05908 -1.50911,5.69672 -1.83958,6.02719 -0.22326,0.22326 -0.4122,1.57665 -0.41988,3.00755 -0.008,1.43089 -0.48678,4.01376 -1.06469,5.7397 -0.5779,1.72593 -1.23413,4.47155 -1.45829,6.10136 -0.22415,1.62981 -0.63906,3.10636 -0.922,3.28123 -0.28295,0.17488 -0.51364,1.13303 -0.51265,2.12924 10e-4,0.99621 -0.52747,3.72703 -1.17436,6.0685 -0.64688,2.34146 -1.52208,5.66208 -1.9449,7.37915 -0.42281,1.71708 -1.18777,4.65455 -1.69988,6.52772 -0.51212,1.87317 -1.06184,4.04435 -1.22161,4.82483 -0.15976,0.78049 -0.50932,1.92994 -0.77681,2.55433 -0.26749,0.62439 -0.88056,2.66785 -1.36238,4.54102 -1.41206,5.48972 -2.42616,8.92737 -3.34896,11.35255 -0.47518,1.24878 -1.02294,3.0368 -1.21725,3.97339 -0.19431,0.93659 -1.07116,3.61863 -1.94856,5.96009 -1.98868,5.30704 -2.91234,7.96865 -3.1722,9.14087 -0.11099,0.50066 -0.98996,2.76244 -1.95327,5.02618 -0.96331,2.26374 -1.75147,4.3564 -1.75147,4.65034 0,0.29394 -0.89401,2.44397 -1.98669,4.77785 -1.09269,2.33387 -1.9867,4.6258 -1.9867,5.09316 0,0.46737 -1.29216,3.52867 -2.87146,6.8029 -1.57931,3.27423 -2.95771,6.40095 -3.06311,6.94828 -0.10541,0.54733 -0.7799,2.20592 -1.49886,3.68577 l -1.3072,2.69061 h -4.90642 c -2.69853,0 -7.94786,0.0972 -11.66516,0.21609 -3.71731,0.11885 -8.24054,0.10572 -10.05162,-0.0292 z"
         id="path4325" /><path
         style="fill:#00849a;fill-opacity:1;stroke-width:0.567627"
         d="m 257.70288,790.59346 c -5.68893,-0.82064 -14.24849,-4.03137 -14.83719,-5.5655 -0.17952,-0.46782 -0.66241,-0.85058 -1.07309,-0.85058 -1.23677,0 -5.88707,-5.729 -7.60237,-9.36585 -2.62622,-5.56822 -4.23491,-13.70912 -3.85815,-19.52448 0.17519,-2.70404 0.5676,-5.5476 0.87202,-6.31903 0.30443,-0.77144 0.88093,-2.55206 1.28111,-3.95693 0.40018,-1.40488 1.06536,-2.95759 1.47818,-3.45046 0.41282,-0.49288 0.75058,-1.23274 0.75058,-1.64414 0,-2.09412 7.23892,-10.85277 10.42584,-12.61463 0.73488,-0.40626 2.43321,-1.4694 3.77408,-2.36252 9.02361,-6.01044 25.56778,-9.83655 44.83334,-10.36843 6.0878,-0.16807 11.884,-0.55479 12.88043,-0.85937 2.43157,-0.74327 2.92939,-2.56547 2.96549,-10.85477 0.0289,-6.64077 -0.58883,-10.39396 -2.43918,-14.81966 -0.50541,-1.20886 -0.91894,-2.66048 -0.91894,-3.22582 0,-0.56535 -1.59645,-2.64703 -3.54767,-4.62596 -3.71912,-3.77195 -7.02429,-5.58411 -12.48329,-6.84436 -5.71398,-1.31911 -29.80932,-0.48888 -36.19077,1.24699 -1.40487,0.38215 -3.57605,0.95493 -4.82483,1.27284 -1.24878,0.3179 -2.70636,0.80374 -3.23907,1.07964 -0.5327,0.2759 -1.96465,0.66091 -3.1821,0.85559 -1.9865,0.31766 -2.25025,0.21686 -2.57136,-0.98268 -0.1968,-0.73515 -0.36131,-1.87211 -0.36557,-2.52658 -0.004,-0.65448 -0.40963,-1.99553 -0.9008,-2.98012 -1.10216,-2.20932 -0.87131,-3.69796 0.61575,-3.97071 0.62081,-0.11386 1.51189,-0.5439 1.98018,-0.95564 0.46829,-0.41174 1.61774,-0.92778 2.55432,-1.14676 0.93659,-0.21898 3.23548,-0.90465 5.10865,-1.52371 1.87317,-0.61907 4.04435,-1.20859 4.82483,-1.31004 0.78049,-0.10146 2.70259,-0.55577 4.27133,-1.0096 7.71276,-2.23123 24.27571,-4.07982 31.77302,-3.54618 4.93201,0.35105 12.32472,1.61043 15.56236,2.65112 11.72801,3.7698 20.31263,11.99062 22.83467,21.86701 0.30852,1.20814 0.81507,3.21835 1.12569,4.46713 0.52837,2.12424 1.48734,55.047 1.58654,87.55654 l 0.0437,14.33259 h -8.19709 c -5.48604,0 -8.32835,-0.21235 -8.59393,-0.64207 -0.21825,-0.35314 -0.55898,-2.93518 -0.75717,-5.73787 -0.31229,-4.41618 -0.53718,-5.23899 -1.68626,-6.16946 -0.72924,-0.59051 -1.74665,-1.07366 -2.26088,-1.07366 -1.37209,0 -6.2661,2.71991 -8.833,4.90905 -1.22693,1.04637 -2.47998,1.90248 -2.78456,1.90248 -0.30458,0 -1.34419,0.60173 -2.31025,1.33717 -2.38936,1.81898 -5.58577,3.37975 -9.98706,4.87653 -2.02926,0.69011 -4.43902,1.59665 -5.35501,2.01453 -1.19229,0.54393 -4.41749,0.75186 -11.35255,0.73189 -5.32791,-0.0153 -10.45341,-0.13842 -11.39,-0.27353 z m 28.77205,-14.69123 c 5.14782,-1.59697 7.71184,-2.79788 12.19333,-5.711 1.61388,-1.04908 3.1552,-1.90742 3.42515,-1.90742 0.68156,0 6.14205,-5.68572 6.91472,-7.19993 0.70419,-1.38002 0.84399,-30.946 0.15457,-32.69031 -0.90709,-2.29504 -3.05669,-2.68182 -14.90458,-2.68182 -10.38695,0 -14.65646,0.42382 -17.82353,1.76926 -0.62439,0.26525 -1.96916,0.61857 -2.98838,0.78514 -2.81815,0.46059 -6.50453,1.81594 -10.16708,3.7381 -4.01917,2.10931 -5.545,3.47959 -6.48698,5.82566 -0.395,0.98379 -1.41671,2.47373 -2.27046,3.31097 -1.15773,1.13534 -1.67183,2.36169 -2.02262,4.82484 -0.58057,4.07646 -0.57836,13.50791 0.004,15.74069 1.48107,5.68161 5.94803,11.36486 10.5926,13.4768 5.68167,2.58354 16.31517,2.91056 23.37958,0.71902 z"
         id="path4327" /><path
         style="fill:#00849a;fill-opacity:1;stroke-width:0.567627"
         d="m 170.57206,833.25157 c -4.39506,-2.96731 -7.37916,-5.49176 -7.37916,-6.24251 0,-0.95526 1.99802,-4.64401 3.36891,-6.2197 1.43812,-1.65297 3.13356,-5.26298 3.99879,-8.51442 0.41539,-1.56097 0.93813,-3.09357 1.16166,-3.40576 0.22353,-0.3122 0.71946,-1.97251 1.10207,-3.68958 0.38261,-1.71707 1.06577,-4.58516 1.51813,-6.37352 0.70215,-2.77591 0.8169,-16.62272 0.78438,-94.65189 l -0.0381,-91.40031 h 12.21615 12.21615 l -0.025,85.00222 c -0.025,84.65875 -0.11334,89.0194 -1.83954,90.74559 -0.22325,0.22326 -0.40592,1.27867 -0.40592,2.34535 0,2.25576 -1.9677,10.30896 -3.2246,13.19731 -1.29697,2.9804 -1.70468,4.00427 -2.7579,6.92564 -0.52912,1.46764 -1.44297,3.10369 -2.03078,3.63565 -0.58782,0.53196 -1.06876,1.32168 -1.06876,1.75491 0,0.43324 -1.06354,2.22737 -2.36343,3.98697 -2.40613,3.25705 -12.15825,13.99087 -12.86053,14.15513 -0.21219,0.0496 -1.2798,-0.51335 -2.37249,-1.25108 z"
         id="path4329" /><path
         style="fill:#00849a;fill-opacity:1;stroke-width:0.141907"
         d="m 871.85388,621.48115 c 0.031,-3.79748 0.0735,-4.58216 0.28303,-5.21507 0.13563,-0.40976 0.30406,-0.74502 0.37431,-0.74502 0.39621,0 0.28571,3.9603 -0.22372,8.01774 -0.38311,3.0513 -0.47184,2.63026 -0.43362,-2.05765 z"
         id="path4331" /><path
         style="fill:#00849a;fill-opacity:1;stroke-width:0.141907"
         d="m 889.11752,616.04333 c 0,-0.26041 0.58705,-0.74457 1.04094,-0.85849 0.49537,-0.12433 0.48864,0.11749 -0.0121,0.43598 -0.21463,0.13651 -0.44131,0.32955 -0.50372,0.42899 -0.1491,0.23752 -0.5251,0.23289 -0.5251,-0.006 z"
         id="path4333" /><path
         style="fill:#00849a;fill-opacity:1;stroke-width:0.141907"
         d="m 886.68131,631.86043 c -0.39632,-0.35411 -0.46779,-0.52987 -0.56258,-1.38359 -0.16558,-1.49122 -0.1473,-8.06566 0.0423,-15.19946 l 0.17051,-6.41664 0.7899,-0.18203 c 0.43444,-0.10012 1.58813,-0.18182 2.56374,-0.18155 1.47864,4e-4 2.03585,0.0671 3.34836,0.40105 l 1.57452,0.40056 1.4488,3.85616 c 1.61346,4.29442 2.31785,5.82001 2.88149,6.24083 0.35954,0.26843 0.3999,0.27101 0.74116,0.0474 0.71185,-0.46642 1.22092,-1.59483 3.28933,-7.2912 l 1.4037,-3.86577 0.49667,10e-4 c 0.62491,0.002 6.83088,0.5358 6.88721,0.59278 0.0229,0.0231 0.1417,4.09708 0.26402,9.05318 0.12231,4.9561 0.26288,10.08071 0.31237,11.38803 l 0.09,2.37694 h -2.55975 -2.55975 l -0.053,-4.36364 c -0.056,-4.61336 -0.16361,-5.43692 -0.7242,-5.54487 -0.74967,-0.14435 -1.45019,1.26955 -3.50301,7.07037 -0.56621,1.6 -1.04577,2.92849 -1.06567,2.95221 -0.065,0.0775 -5.24518,-0.56024 -5.34311,-0.65776 -0.0524,-0.0522 -0.96405,-2.48224 -2.02586,-5.40011 -1.06181,-2.91787 -1.98684,-5.40577 -2.05562,-5.52868 -0.16577,-0.29621 -0.24374,0.35253 -0.44084,3.6676 -0.23965,4.03092 -0.74464,6.58709 -1.4537,7.35842 -0.54278,0.59045 -1.63048,1.01115 -2.61824,1.0127 -0.7738,10e-4 -0.94158,-0.0495 -1.33867,-0.40426 z m 23.52442,-6.8316 c 0.16907,-4.74026 -0.54678,-10.92105 -1.38885,-11.99156 -0.83917,-1.06684 -1.92704,0.058 -4.94132,5.10907 -3.1153,5.22038 -4.15584,6.27137 -5.4296,5.48415 -0.74072,-0.4578 -1.37063,-1.37903 -3.26468,-4.77461 -1.50211,-2.69291 -2.21258,-3.71924 -3.25747,-4.70567 -1.23603,-1.16688 -2.28279,-1.25518 -3.06662,-0.2587 -0.79756,1.01393 -1.24567,3.98835 -1.11134,7.37678 0.12182,3.07324 0.79617,9.53495 0.80588,7.7221 10e-4,-0.18862 0.0652,-1.92506 0.14264,-3.85875 0.21246,-5.30468 0.59461,-7.57336 1.53521,-9.1139 l 0.51987,-0.85144 0.0709,1.98669 0.071,1.9867 0.87231,-1.33638 0.8723,-1.33638 0.43793,0.76875 c 0.24086,0.42282 1.70021,2.999 3.243,5.72485 1.54278,2.72585 2.86892,4.97396 2.94697,4.99579 0.078,0.0218 0.94013,-1.33683 1.91574,-3.01924 0.97561,-1.68241 2.33987,-3.91735 3.03168,-4.96655 1.22028,-1.85066 2.66158,-3.61803 2.74542,-3.36652 0.0227,0.068 -0.20823,0.77811 -0.5131,1.578 -0.35205,0.9237 -0.49184,1.45435 -0.38312,1.45435 0.0942,0 0.72507,-0.12103 1.40204,-0.26897 l 1.23085,-0.26898 0.0704,0.44636 c 0.0387,0.2455 0.23743,2.68139 0.44159,5.4131 0.20416,2.73171 0.40883,5.06253 0.45482,5.1796 0.15009,0.38208 0.44982,-2.42469 0.54555,-5.10864 z"
         id="path4335" /><path
         style="fill:#00849a;fill-opacity:1;stroke-width:0.141907"
         d="m 870.81153,632.44324 c -0.29032,-0.14503 -0.59635,-0.45447 -0.73659,-0.74479 -0.41223,-0.8534 -0.70331,-4.70865 -0.98037,-12.98448 -0.0888,-2.65366 -0.17399,-4.83956 -0.18922,-4.85755 -0.0152,-0.018 -1.23692,-0.16767 -2.71486,-0.3326 -1.47794,-0.16493 -2.75606,-0.31962 -2.84028,-0.34376 -0.10509,-0.0301 -0.0597,-0.70463 0.1446,-2.15077 l 0.29772,-2.10689 8.66366,-0.0366 8.66367,-0.0366 0.25729,2.02325 c 0.14152,1.11279 0.28393,2.09374 0.31648,2.17989 0.0397,0.10499 -0.42286,0.18234 -1.4026,0.23457 -1.6694,0.089 -2.00687,0.19129 -2.73227,0.8282 -1.69191,1.48552 -2.19681,4.71245 -1.9253,12.30499 0.0877,2.45271 0.14021,4.47663 0.11666,4.49759 -0.0235,0.021 -0.44857,0.29888 -0.9445,0.61759 -1.71082,1.09945 -3.0165,1.39624 -3.99409,0.90788 z m 1.55588,-8.5809 c 0.38497,-3.00104 0.63414,-6.72679 0.51331,-7.67546 -0.20954,-1.64522 -0.88755,-0.58223 -1.21946,1.9119 -0.18082,1.35878 -0.13877,7.60279 0.0532,7.90028 0.24459,0.37903 0.39218,-0.10395 0.65294,-2.13672 z"
         id="path4337" /><path
         style="fill:#00849a;fill-opacity:1;stroke-width:0.141907"
         d="m 761.54324,712.21608 c 0,-0.10496 1.29031,-2.25748 5.84517,-9.75099 1.93638,-3.18567 3.52068,-5.87635 3.52068,-5.9793 0,-0.10294 -2.3554,-4.30095 -5.23422,-9.3289 -8.93048,-15.59735 -13.78692,-24.68895 -23.14303,-43.3254 -8.07981,-16.09418 -13.46304,-27.52924 -14.82868,-31.49908 -0.38615,-1.1225 -0.41808,-1.94643 -0.12255,-3.16168 l 0.0777,-0.31929 h 15.80708 15.80709 l 6.61606,13.23282 c 10.02167,20.04438 21.13361,41.88264 22.87136,44.949 1.65949,2.92828 3.3514,5.67332 3.43835,5.57854 0.13894,-0.15145 4.6473,-7.89244 6.59615,-11.32577 7.10854,-12.52332 12.13673,-22.4772 20.24746,-40.08218 3.04266,-6.60434 5.72924,-12.15503 5.94882,-12.29074 0.14088,-0.0871 29.07277,-0.67971 29.15527,-0.59722 0.14491,0.14491 -0.67596,4.15655 -1.06516,5.20549 -2.8016,7.55062 -16.47423,35.86225 -22.89581,47.40988 -2.7349,4.91806 -10.02919,17.23956 -14.19741,23.98227 -2.9724,4.80829 -4.45816,7.05211 -5.40298,8.15964 -0.39949,0.46829 -0.81122,0.96104 -0.91496,1.09499 -0.16532,0.21346 0.003,0.54653 1.36427,2.69623 2.38884,3.77301 7.84092,12.97173 8.96037,15.11787 l 0.16654,0.31929 -2.31098,-9.9e-4 -2.31098,-9.9e-4 -0.6995,-1.24075 c -0.38473,-0.6823 -2.02065,-3.5076 -3.63537,-6.27833 -4.10697,-7.04721 -4.25049,-7.36408 -4.25049,-9.38429 0,-2.59519 1.14605,-4.97034 7.48883,-15.52037 4.0084,-6.66722 6.82239,-11.57237 10.70532,-18.66075 11.55628,-21.09629 24.80363,-46.8854 24.80363,-48.28617 0,-0.11784 -0.17424,-0.24938 -0.39024,-0.2946 -0.95317,-0.19957 -9.34273,-0.38778 -15.54691,-0.34879 l -6.78415,0.0426 -1.81204,4.39911 c -0.99663,2.41952 -2.49619,5.94867 -3.33235,7.84257 -10.81127,24.48719 -25.32981,48.82869 -30.54924,51.21822 -0.94046,0.43056 -1.18155,0.36209 -1.89264,-0.53751 -4.10372,-5.1916 -27.00515,-49.04321 -31.16942,-59.68316 -0.49078,-1.25397 -0.62057,-1.76594 -0.62057,-2.44789 v -0.86229 h -13.4102 c -7.37561,0 -13.4102,0.041 -13.4102,0.0912 0,0.1243 19.06817,37.92652 21.49976,42.62278 8.66538,16.73594 13.0764,24.77051 17.20782,31.34368 2.21192,3.5192 3.17711,5.42603 3.59984,7.11181 0.89492,3.56886 -0.3869,7.08179 -6.227,17.06557 l -1.05837,1.80931 h -2.25604 c -1.24082,0 -2.25603,-0.0385 -2.25603,-0.0855 z"
         id="path4339" /><path
         style="fill:#00849a;fill-opacity:1;stroke-width:0.200687"
         d="m 622.70803,695.52967 c 0.16724,-66.16901 0.34476,-83.76902 0.86526,-85.78956 l 0.34998,-1.35861 3.31706,-0.005 c 4.99464,-0.007 86.79603,0.45983 86.84615,0.49541 0.10183,0.0723 0.63051,22.68338 0.53266,22.78124 -0.0593,0.0593 -12.85649,0.0766 -28.43815,0.0385 l -28.33028,-0.0693 -1.85696,1.36086 -1.85695,1.36085 0.10529,5.43149 c 0.0579,2.98732 0.19983,14.95773 0.31537,26.60092 0.11554,11.64318 0.24495,21.20429 0.28756,21.24691 0.0426,0.0426 3.85201,0.15448 8.4653,0.24859 23.41418,0.47764 28.8267,0.58632 35.43034,0.71139 l 7.17454,0.1359 v 11.17417 11.17417 l -11.18827,0.13227 c -6.15356,0.0728 -17.26959,0.19244 -24.7023,0.26598 l -13.51402,0.1337 -1.12957,1.39805 -1.12957,1.39805 -0.13764,18.48731 c -0.0757,10.16802 -0.14637,18.50988 -0.15705,18.53748 -0.0107,0.0276 -0.61959,0.0502 -1.35315,0.0502 h -1.33374 l 0.1282,-6.87352 c 0.0705,-3.78043 0.17576,-11.84051 0.2339,-17.91128 0.0581,-6.07077 0.15807,-12.4909 0.22207,-14.26696 l 0.11635,-3.22919 6.95391,-0.1244 c 27.51676,-0.49223 41.475,-0.77617 42.72629,-0.86912 l 1.45498,-0.10809 v -8.19047 -8.19047 l -2.6591,-0.12108 c -1.4625,-0.0666 -12.95432,-0.3139 -25.53737,-0.54957 -12.58305,-0.23566 -22.91277,-0.45822 -22.95492,-0.49456 -0.0422,-0.0364 -0.2032,-13.30526 -0.35787,-29.48646 l -0.28121,-29.42037 1.03548,-1.24148 1.03547,-1.24148 1.32926,-0.12559 c 0.73109,-0.0691 13.85962,-0.1368 29.17452,-0.15051 l 27.84527,-0.0249 v -8.32849 -8.3285 h -42.54557 -42.54556 v 69.63826 69.63826 h -2.03868 -2.03868 z"
         id="path4341" /><path
         style="fill:#00849a;fill-opacity:1;stroke-width:0.283814"
         d="m 729.61573,792.25667 c -3.39628,-0.12582 -5.61006,-0.32533 -5.85372,-0.52755 -1.15798,-0.96104 -0.70623,-4.94329 0.93464,-8.23902 0.58898,-1.18297 2.4585,-5.21604 4.15449,-8.96238 6.99462,-15.45066 18.68903,-37.97776 29.13552,-56.12417 l 3.39025,-5.88914 h 2.23767 2.23767 l -1.87183,3.19291 c -13.46989,22.97644 -24.26018,43.548 -33.13169,63.16518 -1.50422,3.32622 -3.25154,7.07513 -3.88294,8.33092 -0.6314,1.25579 -1.09088,2.34037 -1.02107,2.41019 0.0698,0.0698 4.89917,-0.006 10.7319,-0.16953 5.83274,-0.16306 11.21479,-0.29725 11.96012,-0.29821 1.14298,-10e-4 1.39334,-0.10172 1.59913,-0.64033 0.76651,-2.00607 5.63594,-12.93086 8.31752,-18.66075 4.82374,-10.30712 14.53189,-29.47315 18.83256,-37.1796 2.13424,-3.82439 4.32019,-7.87581 4.85765,-9.00315 1.02795,-2.15614 2.54421,-3.7522 4.85034,-5.10559 1.0706,-0.6283 1.31188,-0.67158 2.04682,-0.36715 1.76788,0.73227 4.53745,4.40434 8.99158,11.92157 4.55141,7.68141 9.28017,16.66106 21.97045,41.72062 l 8.69535,17.17073 4.93574,0.17831 c 2.71466,0.0981 8.62436,0.26176 13.13266,0.36376 l 8.19693,0.18546 -0.16736,-0.83679 c -0.27784,-1.38918 -3.43339,-7.96083 -14.39329,-29.975 -9.40954,-18.90011 -14.48184,-28.44316 -23.87233,-44.91353 l -0.84953,-1.49002 h 2.23093 2.23093 l 4.01509,7.30821 c 13.62333,24.79694 27.79761,52.98914 32.90266,65.44234 1.00236,2.44514 1.30811,3.55886 1.33768,4.87251 l 0.0383,1.70289 -16.23719,0.0733 -16.23719,0.0733 -7.24211,-14.40587 c -15.46271,-30.7581 -29.0738,-55.70076 -30.39565,-55.70076 -0.86003,0 -7.18901,11.26963 -16.66181,29.66868 -5.96519,11.58623 -10.76767,21.60001 -15.54608,32.41557 l -3.79309,8.58537 -8.67293,-0.0454 c -4.77011,-0.025 -11.13078,-0.13649 -14.13481,-0.24778 z"
         id="path4343" /><path
         style="fill:#00849a;fill-opacity:1;stroke-width:0.283814"
         d="m 624.03548,791.35643 -1.20621,-1.24044 v -19.21764 -19.21764 h 1.84479 1.84479 v 19.05012 19.05012 l 5.46341,-0.17369 c 3.00488,-0.0955 8.47621,-0.2538 12.15851,-0.35173 l 6.6951,-0.17805 0.18739,-10.65614 c 0.10306,-5.86088 0.18738,-13.87604 0.18738,-17.81147 0,-3.93543 0.0798,-7.55444 0.17739,-8.04224 0.16737,-0.83687 0.25001,-0.88692 1.46426,-0.88692 h 1.28689 l -0.18641,6.17295 c -0.10253,3.39512 -0.18672,12.44723 -0.18711,20.1158 l -6.9e-4,13.94286 -9.86253,0.17958 c -5.42439,0.0988 -11.84213,0.25279 -14.26164,0.34228 l -4.39911,0.1627 z"
         id="path4345" /><path
         style="fill:#00849a;fill-opacity:1;stroke-width:0.401373"
         d="m 496.09734,791.90588 c -5.98648,-2.5208 -6.03714,-2.553 -8.93925,-5.68092 -4.22442,-4.55314 -7.14563,-9.08859 -8.75626,-13.59493 l -1.36972,-3.83231 0.0145,-11.12174 0.0145,-11.12173 1.72304,-4.47196 c 4.2831,-11.11633 10.85263,-17.75807 23.44825,-23.70598 11.09624,-5.23987 17.42814,-6.44286 38.70014,-7.35262 5.58413,-0.23882 10.92058,-0.52617 11.85879,-0.63856 l 1.70584,-0.20435 v -9.46538 -9.46537 l -2.69101,-4.59654 -2.69101,-4.59653 -5.55375,-2.78217 -5.55374,-2.78217 -12.52632,0.11134 -12.52631,0.11134 -11.03776,2.88481 c -6.07077,1.58664 -11.74829,2.94128 -12.61672,3.0103 -1.5546,0.12355 -1.58739,0.0976 -2.12578,-1.68069 -0.72457,-2.39326 -3.19273,-12.25788 -3.52549,-14.09046 -0.25104,-1.38259 -0.18511,-1.4921 1.47686,-2.45269 5.86855,-3.39195 19.46337,-6.86998 34.05018,-8.71124 16.19029,-2.04366 30.41961,-1.27294 40.94007,2.21747 5.94128,1.97116 9.61136,4.15078 13.44601,7.98542 5.24189,5.2419 7.90899,10.8527 10.01661,21.0721 l 1.03474,5.01716 -0.30783,49.77029 -0.30782,49.77028 -11.53029,0.10648 -11.5303,0.10649 -0.1796,-0.90923 c -0.0988,-0.50008 -0.37922,-2.70337 -0.62318,-4.89621 -0.24396,-2.19283 -0.64093,-4.22479 -0.88215,-4.51545 -0.84157,-1.01402 -2.19426,-0.50651 -7.12324,2.67255 -5.55174,3.58073 -11.1385,6.55159 -15.80075,8.40236 -3.64024,1.44505 -4.84513,1.54101 -22.57081,1.79755 l -11.63982,0.16846 z m 35.80989,-1.96225 c 8.20659,-2.98271 15.48705,-6.60409 19.64024,-9.76927 3.366,-2.56526 5.96046,-3.7092 8.42311,-3.71389 l 2.06176,-0.004 0.46397,2.50858 c 0.25518,1.37972 0.59171,4.22446 0.74785,6.32163 l 0.28388,3.81305 8.87673,0.10788 8.87672,0.10788 0.2994,-48.80109 0.2994,-48.80108 -0.88,-0.93673 c -0.71663,-0.76271 -0.94444,-1.67061 -1.22708,-4.89003 -0.19089,-2.17437 -0.71629,-5.12741 -1.16756,-6.56232 -3.23448,-10.28466 -13.21728,-17.35376 -29.03425,-20.55997 -4.06434,-0.82387 -5.60925,-0.91226 -15.74498,-0.90082 -12.33075,0.0139 -16.05682,0.43924 -26.66995,3.0444 -6.94268,1.70419 -16.95571,5.00081 -18.22727,6.00102 -1.5405,1.21176 -1.48507,2.1691 0.58525,10.10747 0.28771,1.10318 0.60573,1.50515 1.19082,1.50515 0.43906,0 4.9927,-1.06253 10.11921,-2.36119 l 9.32092,-2.36119 14.44944,-0.18579 14.44944,-0.18579 3.43991,1.30221 c 4.49114,1.70015 7.18656,3.39274 9.36059,5.87799 4.33416,4.9546 6.20311,11.79969 6.89725,25.26154 0.28198,5.46837 0.28141,5.47347 -0.67687,6.09895 -1.39734,0.91204 -5.10814,1.38597 -14.60578,1.86539 -20.53163,1.03638 -32.14341,3.42003 -42.42577,8.70909 -9.76468,5.02278 -15.57236,11.7221 -19.59795,22.60675 l -1.26178,3.41167 0.17772,9.0309 c 0.1492,7.58182 0.31571,9.54613 1.03774,12.24188 2.85535,10.66076 9.72971,17.21948 21.02623,20.06081 5.04535,1.26902 9.33257,1.69321 17.788,1.75997 l 6.84718,0.0541 z"
         id="path4347" /><path
         style="fill:#00849a;fill-opacity:1;stroke-width:0.401373"
         d="m 518.57424,776.19136 c -5.39836,-1.15499 -11.029,-5.01543 -13.02672,-8.93128 -1.80349,-3.53514 -2.42615,-7.27957 -2.42615,-14.58995 v -6.80034 l 1.54347,-3.27013 c 5.57462,-11.81092 16.76388,-15.73066 46.72959,-16.36997 l 4.3227,-0.0922 1.59756,1.55998 1.59756,1.55998 v 15.70438 15.70439 l -2.23423,2.4689 c -3.82227,4.22375 -10.97504,8.47591 -20.02514,11.90451 l -4.79964,1.81832 -5.23469,-0.0327 c -3.00038,-0.0187 -6.43392,-0.2893 -8.04431,-0.63384 z m 15.83501,-4.22626 c 6.46535,-2.06738 12.66411,-5.48437 18.37669,-10.12989 l 2.50322,-2.03565 0.005,-14.77094 0.005,-14.77095 -1.50515,-0.63893 c -3.4408,-1.46059 -12.7644,-1.07197 -22.30239,0.92959 -10.09718,2.11891 -16.1641,4.75825 -20.08542,8.73792 -7.88376,8.00105 -8.43405,19.60517 -1.30085,27.43102 6.05315,6.64091 14.34632,8.43168 24.30317,5.24783 z"
         id="path4349" /><path
         style="fill:#00849a;fill-opacity:1;stroke-width:0.401373"
         d="m 391.01173,788.95983 c -0.76073,-1.90981 -1.50905,-4.10454 -1.66294,-4.87718 -0.15388,-0.77265 -1.9728,-6.82335 -4.04204,-13.44601 -2.06924,-6.62266 -5.49459,-17.73066 -7.6119,-24.68445 -2.11731,-6.9538 -5.00516,-16.34593 -6.41745,-20.87141 -7.22317,-23.14566 -17.33059,-56.49364 -18.85606,-62.21286 -0.55937,-2.09717 -1.01749,-4.40005 -1.01805,-5.11751 l -0.001,-1.30446 h 15.22335 15.22334 l 0.86571,2.3079 c 0.47614,1.26934 3.03126,9.26169 5.67806,17.76076 2.64679,8.49908 7.43088,23.85161 10.6313,34.11673 7.80612,25.03759 9.82543,32.13581 11.85868,41.68542 0.94676,4.44668 1.83866,8.08486 1.98201,8.08486 1.23585,0 10.69096,-29.35877 14.99222,-46.55192 5.22629,-20.89069 10.11394,-45.53893 10.52734,-53.08899 l 0.23625,-4.31476 h 15.19205 c 8.35563,0 15.19032,0.13546 15.18819,0.30103 -0.002,0.16557 -0.2723,2.73937 -0.60039,5.71957 -2.47786,22.50742 -16.79235,74.3376 -27.84313,100.81491 -1.3521,3.23958 -2.45836,6.22487 -2.45836,6.63398 0,0.40912 -0.65124,2.09339 -1.4472,3.74282 -0.79596,1.64944 -2.16462,4.62454 -3.04147,6.61134 -0.87684,1.9868 -2.41459,5.36132 -3.41722,7.49894 l -1.82295,3.88657 -2.46064,0.21389 c -1.35335,0.11764 -9.44777,0.29248 -17.9876,0.38855 l -15.52695,0.17466 z m 25.00251,0.34067 h 9.52347 l 3.51409,-7.52575 c 1.93275,-4.13916 4.11171,-9.061 4.84212,-10.93742 0.73042,-1.87642 2.60095,-6.6628 4.15675,-10.63639 7.91842,-20.22409 13.2435,-37.22789 19.70089,-62.90802 4.10821,-16.33777 8.44347,-35.56898 8.44347,-37.45521 0,-0.49609 -1.83928,-0.58215 -12.44257,-0.58215 -11.58102,0 -12.44284,0.0486 -12.44644,0.70241 -0.0109,1.99255 -1.35329,12.3874 -2.40233,18.60323 -3.91893,23.22087 -10.03332,47.17634 -18.42382,72.18234 -4.65223,13.86492 -4.36145,13.31774 -7.3228,13.78028 -1.45242,0.22686 -1.46923,0.21288 -2.70451,-2.24799 -0.68366,-1.36195 -1.70211,-4.46306 -2.26324,-6.89137 -2.29491,-9.93133 -2.77034,-11.846 -4.08629,-16.45631 -0.75613,-2.64906 -2.88448,-9.60285 -4.72966,-15.45287 -1.84518,-5.85001 -4.34604,-13.88751 -5.55746,-17.86111 -4.83042,-15.84434 -11.15611,-35.99221 -12.79067,-40.73938 l -1.72752,-5.01717 -11.96887,-0.3399 c -6.58289,-0.18695 -12.03803,-0.27075 -12.12255,-0.18623 -0.27976,0.27976 1.42086,6.42082 4.425,15.979 1.63051,5.18775 4.43094,14.21865 6.22318,20.06867 1.79224,5.85001 4.40619,14.24875 5.80879,18.66385 1.4026,4.41511 3.35699,10.73674 4.34309,14.04807 7.32439,24.59537 18.0108,59.03623 18.74167,60.40188 0.36862,0.68878 0.95246,0.79809 4.9265,0.92242 2.47959,0.0776 5.02761,0.0835 5.66228,0.0131 0.63467,-0.0704 5.43951,-0.12797 10.67743,-0.12797 z"
         id="path4351" /><path
         style="fill:#00849a;fill-opacity:1;stroke-width:0.401373"
         d="m 247.27664,792.3133 -5.5885,-2.1591 -5.50213,-5.4916 -5.50213,-5.4916 -1.64641,-5.67199 c -2.45285,-8.45019 -2.98425,-12.17338 -2.75733,-19.31867 0.21188,-6.67152 1.14597,-10.76077 3.55703,-15.57192 4.43911,-8.85799 12.95925,-16.03154 24.43278,-20.57121 10.5514,-4.1748 21.40925,-6.19082 37.76171,-7.01135 4.7283,-0.23726 9.54515,-0.52639 10.70411,-0.64252 l 2.10721,-0.21113 -0.001,-9.30305 -10e-4,-9.30305 -2.96018,-5.02048 -2.96017,-5.02048 -5.49593,-2.50527 -5.49594,-2.50527 h -11.83451 -11.83452 l -8.70745,2.26098 c -9.3048,2.41608 -16.44777,4.14201 -17.19092,4.15377 -0.4757,0.008 -2.60936,-7.2836 -3.33761,-11.40528 -0.23144,-1.30989 -0.42081,-3.31865 -0.42081,-4.46392 v -2.0823 l 4.27084,-1.90634 c 9.18008,-4.09765 17.32272,-6.61387 26.83559,-8.29267 5.75467,-1.01557 19.81681,-1.44267 25.36329,-0.77033 19.47348,2.36053 34.27584,11.44881 40.30527,24.74643 0.65638,1.44761 1.68646,4.74171 2.28906,7.32022 l 1.09564,4.68819 -0.31615,50.35273 c -0.24615,39.205 -0.42576,50.42236 -0.81128,50.66723 -0.74659,0.47423 -19.92029,0.38955 -21.66756,-0.0957 l -1.50515,-0.418 -0.0175,-3.09177 c -0.0213,-3.76161 -0.44798,-6.1296 -1.35363,-7.5118 l -0.68214,-1.04107 -1.88334,1.42068 c -7.0107,5.2885 -14.02793,9.19445 -21.24765,11.82694 l -4.51349,1.64574 -13.94966,-0.023 -13.94965,-0.023 z m 35.56099,-2.45548 c 7.57571,-2.62174 10.15256,-3.90643 17.09645,-8.52343 l 6.12887,-4.07509 h 2.97533 c 2.48724,0 3.00927,0.11523 3.18224,0.7024 0.3598,1.22144 0.98952,5.41144 1.26677,8.42884 l 0.26738,2.90996 h 8.78947 8.78948 l -0.0101,-37.62874 c -0.0125,-46.53984 -0.41449,-63.65347 -1.59395,-67.86274 -2.68836,-9.59425 -8.49467,-16.70721 -17.26047,-21.14476 -3.4909,-1.76721 -8.49707,-3.31128 -14.90918,-4.59848 -5.84542,-1.17344 -6.03033,-1.18506 -12.87012,-0.80862 -8.23602,0.45328 -12.93852,0.95271 -19.18137,2.03716 -11.93061,2.07247 -24.00051,5.54245 -26.72026,7.68181 -0.98957,0.77839 -1.05075,0.99987 -0.81956,2.96696 0.13742,1.16918 0.70848,3.57762 1.26904,5.35208 0.94409,2.98858 1.09923,3.22629 2.1055,3.22604 0.59747,-1.5e-4 4.27334,-0.80405 8.16859,-1.78646 8.12544,-2.04928 13.46226,-2.84982 22.82003,-3.42307 10.51936,-0.6444 12.98186,-0.55361 17.07572,0.62962 7.29793,2.10929 13.90227,6.70661 15.97186,11.11812 2.21481,4.72107 3.62754,13.17326 3.41909,20.45607 -0.12865,4.49493 -0.23736,5.11348 -1.12676,6.41105 l -0.98438,1.43613 -6.64171,0.24899 c -15.10249,0.56617 -23.35176,1.4296 -31.32618,3.27881 -21.74071,5.04151 -34.70832,15.46536 -38.4007,30.8679 -0.81596,3.40373 -0.91307,12.03551 -0.17771,15.79677 3.01118,15.40185 9.49939,23.20637 21.90951,26.35446 5.00308,1.26914 9.2675,1.67929 18.14388,1.74507 l 7.29489,0.0541 z"
         id="path4353" /><path
         style="fill:#00849a;fill-opacity:1;stroke-width:0.401373"
         d="m 268.92008,776.11044 c -3.67811,-0.78778 -5.54466,-1.61272 -8.23493,-3.63949 -8.98664,-6.77027 -11.09994,-20.88835 -4.73777,-31.65109 3.38611,-5.7282 8.94713,-9.45588 17.14216,-11.49078 8.6559,-2.14933 23.51006,-3.69614 29.59936,-3.08228 2.51588,0.25363 5.70542,1.22185 5.77887,1.75424 0.007,0.0495 0.1782,7.02659 0.38083,15.5046 0.2954,12.35937 0.26551,15.66082 -0.1508,16.65699 -0.828,1.98129 -4.47051,5.67504 -7.77746,7.88686 -3.72847,2.49376 -8.89723,5.01919 -14.6953,7.18008 -4.25237,1.58482 -4.49919,1.62756 -9.23158,1.59848 -2.96177,-0.0182 -6.11751,-0.2987 -8.07338,-0.71761 z m 14.04806,-3.47132 c 6.8309,-2.03509 13.48758,-5.6202 19.56695,-10.53823 l 2.70927,-2.19172 v -14.36822 -14.36822 l -1.30447,-1.09993 c -2.40373,-2.02685 -3.70738,-2.37136 -8.93055,-2.36001 -7.19671,0.0156 -14.31985,1.98637 -22.97745,6.35707 -9.76532,4.92993 -15.0761,10.51938 -16.53735,17.4051 -0.46285,2.18105 -0.41982,2.66995 0.55865,6.34727 2.33737,8.78442 4.28048,11.09476 12.27836,14.5989 3.7203,1.62999 3.87483,1.66083 7.41187,1.47945 2.26785,-0.11629 4.95688,-0.58581 7.22472,-1.26146 z"
         id="path4355" /><path
         style="fill:#00849a;fill-opacity:1;stroke-width:0.401373"
         d="m 169.78089,836.70636 c -2.38566,-0.62113 -4.66767,-2.11914 -8.12317,-5.3324 -1.93416,-1.79857 -3.66797,-3.40126 -3.85291,-3.56151 -0.18494,-0.16026 1.10126,-2.79516 2.85822,-5.85532 6.06495,-10.56358 7.35409,-13.60568 9.67164,-22.82299 l 1.21102,-4.81648 0.41989,-68.83551 c 0.23093,-37.85953 0.5328,-79.53713 0.67082,-92.61688 l 0.25093,-23.78136 h 14.53565 14.53564 l 0.26693,54.48642 c 0.14681,29.96753 0.267,69.94957 0.26709,88.84897 l 1.6e-4,34.36256 -0.98156,4.81949 c -4.13161,20.28626 -11.72791,35.59772 -20.83614,41.99829 -3.8936,2.73613 -7.91402,3.88264 -10.89421,3.10672 z m 15.27748,-14.46998 c 6.34166,-7.83781 9.327,-14.99739 13.03741,-31.26686 l 1.58741,-6.9605 v -85.85706 -85.85707 h -12.43421 -12.4342 l -0.1152,91.81413 -0.1152,91.81414 -1.73009,6.60481 c -0.95155,3.63264 -2.25811,7.73417 -2.90346,9.1145 -0.64536,1.38033 -1.17338,2.70385 -1.17338,2.94115 0,0.88903 -2.95091,6.12931 -6.70225,11.90198 -0.53425,0.82212 -0.31046,1.05427 4.97795,5.16389 l 5.53735,4.30308 4.53838,-4.76252 c 2.49612,-2.61939 6.06439,-6.64854 7.92949,-8.95367 z"
         id="path4357" /><path
         style="fill:#00849a;fill-opacity:1;stroke-width:0.401373"
         d="m 472.617,457.77243 c -3.4217,-0.18082 -9.37861,-0.81032 -13.23757,-1.39888 -20.46659,-3.12153 -29.79956,-6.16039 -35.61889,-11.59766 l -2.51931,-2.35392 v -3.72379 -3.7238 l 2.44165,-2.26053 c 3.87242,-3.58518 11.67684,-7.76207 15.82083,-8.46724 l 1.60549,-0.2732 -1.80618,1.62709 c -1.95755,1.76346 -1.90403,1.90325 0.45774,1.19564 0.85487,-0.25612 1.65528,-0.36471 1.77868,-0.2413 0.12341,0.12341 -0.34303,1.34842 -1.03654,2.72225 l -1.26092,2.49787 1.16731,1.45613 c 2.96671,3.70077 9.69517,5.57286 24.98299,6.95114 4.0464,0.36481 13.52554,0.52484 31.10643,0.52515 28.7718,5.2e-4 27.23906,0.11151 50.9744,-3.6916 11.00761,-1.76375 15.09051,-2.25932 18.86455,-2.28973 5.43287,-0.0438 5.42242,-0.0474 11.73412,4.02436 1.8425,1.18861 4.24575,2.61503 5.34055,3.16981 1.66387,0.84314 1.98846,1.18872 1.97779,2.1057 -0.0144,1.23961 -0.61448,2.17357 -1.79341,2.79136 -3.00875,1.57665 -23.42372,5.76492 -39.61531,8.12734 -9.35359,1.36473 -15.45404,1.97361 -24.00235,2.39566 -11.4909,0.56732 -39.89921,0.82653 -47.36205,0.43215 z m 25.68789,-2.41582 c 20.52002,-0.68475 30.86601,-1.55556 47.9641,-4.03712 11.39402,-1.65368 31.57873,-5.72319 33.37615,-6.72907 0.43902,-0.24569 -0.22569,-0.80741 -2.56162,-2.16467 -1.73497,-1.00809 -4.12928,-2.66495 -5.32069,-3.68193 -1.19142,-1.01697 -2.35762,-1.84629 -2.59157,-1.84294 -0.23395,0.003 -2.32185,0.35073 -4.63978,0.77195 -8.37287,1.52155 -25.21447,4.01923 -31.10643,4.61322 -31.2971,3.15518 -77.53636,1.85001 -90.22416,-2.54671 -3.03693,-1.05239 -4.4837,-2.12058 -5.65502,-4.17525 -1.35382,-2.37481 -1.53485,-3.55659 -0.84456,-5.51311 0.33188,-0.94064 0.53624,-1.77743 0.45414,-1.85953 -0.21774,-0.21774 -5.764,2.95907 -7.98219,4.57208 -1.04589,0.76054 -2.73436,2.35754 -3.75216,3.54889 l -1.85056,2.16609 0.88268,1.42821 c 0.48548,0.78551 1.72241,2.07197 2.74873,2.85881 2.74467,2.10419 11.73619,6.4247 14.83317,7.12748 6.34879,1.44069 14.35639,2.71754 21.70009,3.46019 4.3331,0.4382 9.14269,1.00604 10.68797,1.26187 7.4521,1.23375 8.32206,1.26076 23.88171,0.74154 z"
         id="path4359" /><path
         style="fill:#00849a;fill-opacity:1;stroke-width:0.401373"
         d="m 488.87262,506.09335 c -24.75864,-1.86372 -42.68367,-6.89247 -51.67681,-14.49759 l -2.70927,-2.29112 v -4.92628 -4.92627 l 2.3079,-1.81596 c 3.25661,-2.56244 8.37914,-5.02022 11.03438,-5.29426 l 2.17157,-0.22413 1.44468,3.36028 1.44468,3.36027 3.542,1.11718 c 8.76107,2.76332 20.45526,3.90893 42.77308,4.19023 17.95689,0.22634 26.01978,-0.13454 34.61822,-1.54944 2.65092,-0.43622 9.05177,-1.39594 14.2241,-2.13271 l 9.40426,-1.33958 8.65754,4.29771 c 4.76165,2.36373 9.42517,4.60087 10.36338,4.97141 1.90042,0.75056 2.13345,1.49866 1.09337,3.50996 -0.76548,1.48027 -5.31793,3.85579 -8.52566,4.44877 -1.24351,0.22987 -3.73181,1.02682 -5.52955,1.771 -7.73891,3.20353 -22.03686,5.80759 -40.72183,7.41659 -5.00243,0.43077 -30.10561,0.84078 -33.91604,0.55394 z m 27.49407,-2.9806 c 16.25723,-0.99728 31.87653,-3.90924 48.36097,-9.0161 4.58307,-1.41983 8.41812,-2.66678 8.52233,-2.77099 0.4174,-0.4174 -17.24488,-8.67433 -18.55512,-8.67433 -0.53984,0 -5.81732,0.79982 -11.72773,1.77737 -14.42349,2.38557 -19.83569,2.80695 -36.03272,2.80541 -21.22889,-0.002 -40.72853,-1.84791 -51.10379,-4.83765 -4.75368,-1.36982 -6.35288,-2.28959 -7.61553,-4.38 -0.5937,-0.9829 -1.23497,-1.7871 -1.42506,-1.7871 -0.19008,0 -1.60405,0.6613 -3.14217,1.46956 -2.91438,1.53147 -6.75309,4.66856 -6.75309,5.51882 0,1.49631 1.35061,4.65036 2.49842,5.83452 9.12211,9.41101 45.23429,16.0075 76.97349,14.06049 z"
         id="path4361" /><path
         style="fill:#00849a;fill-opacity:1;stroke-width:0.401373"
         d="m 466.19503,548.03099 c -44.12769,-1.82444 -98.2619,-8.35726 -107.81734,-13.0112 -2.65379,-1.29251 -5.73192,-4.0114 -6.42829,-5.67805 -1.34741,-3.22481 -0.40693,-6.00629 3.23991,-9.58203 5.56003,-5.45164 17.05805,-10.78544 32.73794,-15.18676 10.70787,-3.00568 11.92705,-3.19608 20.67072,-3.22824 7.88879,-0.029 11.08983,0.34677 8.42884,0.98948 -0.66227,0.15996 -3.0103,0.31497 -5.21785,0.34446 -2.20756,0.0295 -4.28466,0.22873 -4.6158,0.44272 -0.45567,0.29448 -0.27918,0.39058 0.72585,0.39523 0.73035,0.003 3.07283,0.22058 5.20549,0.48267 l 3.87757,0.47652 -3.19861,0.53628 c -6.9624,1.16732 -18.12999,4.89227 -25.2685,8.42832 -3.40922,1.68876 -9.03655,5.48292 -9.03655,6.0928 0,0.46756 3.68133,3.09647 5.81991,4.15612 11.53354,5.71474 40.36919,9.6502 81.88014,11.17489 14.48209,0.53193 57.6901,0.27731 70.44101,-0.41511 36.56709,-1.9857 62.54224,-4.95945 82.79266,-9.47847 10.2091,-2.27823 18.35047,-5.50314 22.68347,-8.98523 1.72204,-1.38387 3.29602,-3.87079 3.29602,-5.20778 0,-0.47519 0.68118,-1.59424 1.51374,-2.48678 l 1.51373,-1.62281 1.67591,2.26207 c 3.45881,4.66856 2.36139,8.78706 -3.51932,13.20767 -15.26406,11.47421 -60.60465,21.42254 -113.56857,24.91847 -20.98175,1.38492 -48.38649,1.77873 -67.83208,0.97476 z m 46.35861,-3.18189 c 34.98265,-1.40672 57.16174,-3.61684 80.64707,-8.03639 20.8713,-3.92763 36.01834,-8.27666 46.32951,-13.30217 3.99623,-1.94771 5.43893,-2.89537 7.43038,-4.88077 1.3592,-1.35507 2.72518,-2.9602 3.03551,-3.56694 1.09921,-2.1491 -0.0235,-1.61859 -2.63877,1.24693 -2.33877,2.56252 -3.17406,3.15732 -7.11596,5.06717 -5.42402,2.62794 -10.05851,4.19071 -18.51421,6.24309 -31.453,7.63431 -88.30894,11.89637 -143.92911,10.78927 -54.59477,-1.08669 -90.26739,-6.71114 -98.88268,-15.5907 -1.44978,-1.49425 -1.59877,-1.85126 -1.72933,-4.14386 l -0.14287,-2.50873 2.93345,-2.05987 c 3.50101,-2.4584 5.275,-3.37834 10.11751,-5.24662 4.51204,-1.74078 5.86057,-2.42513 5.86057,-2.97411 0,-0.71439 -2.94112,-0.005 -10.22243,2.46463 -19.11221,6.48309 -29.62299,13.00645 -29.62299,18.38506 0,4.00972 3.95745,6.19979 15.36165,8.50121 17.94482,3.62135 48.14311,6.77734 84.48907,8.82988 8.16795,0.46126 16.29576,0.99949 18.0618,1.19605 3.57486,0.39791 23.73941,0.18171 38.53183,-0.41313 z"
         id="path4363" /><path
         style="fill:#00849a;fill-opacity:1;stroke-width:0.401373"
         d="m 482.04927,568.15139 c -27.91034,-0.75151 -49.30265,-3.47804 -63.81834,-8.13388 -3.61376,-1.1591 -3.86594,-1.3006 -2.53057,-1.41993 0.81574,-0.0729 2.6861,0.23901 4.15635,0.69313 1.89297,0.58467 3.74448,0.8221 6.34362,0.81346 3.79216,-0.0126 4.06659,-0.47436 0.55286,-0.93022 -1.05239,-0.13653 -2.49733,-0.5669 -3.21098,-0.95638 l -1.29755,-0.70814 1.24481,-0.12232 c 0.68465,-0.0673 7.00628,0.42401 14.04807,1.09174 23.27698,2.20722 24.10156,2.23972 56.75362,2.23732 36.43234,-0.003 47.83695,-0.52342 74.85611,-3.41797 16.48257,-1.76577 18.14118,-1.98038 21.73261,-2.81189 1.79819,-0.41633 7.06177,-1.39002 11.69684,-2.16376 27.28649,-4.55497 49.44641,-11.55042 61.93679,-19.55223 1.67772,-1.07481 3.16781,-1.9542 3.31133,-1.9542 0.37791,0 0.31667,1.18805 -0.14736,2.85861 -0.34409,1.23877 -0.8929,1.75207 -3.71047,3.47048 -7.53739,4.597 -16.1183,8.31614 -26.06925,11.29894 -27.03972,8.10518 -62.45532,12.737 -110.694,14.47707 -19.61678,0.70763 -60.98138,0.41699 -80.27465,-0.56402 -6.11724,-0.31105 -2.22173,0.42379 5.01717,0.94642 3.53208,0.25501 7.50568,0.63927 8.83021,0.85391 6.97097,1.12968 15.99117,1.26802 52.98127,0.81256 47.2182,-0.58139 58.53694,-0.95191 69.43757,-2.27301 30.35976,-3.67944 54.00893,-9.43574 69.0362,-16.80369 6.63414,-3.25275 10.96718,-6.27092 15.248,-10.62097 1.54299,-1.56794 2.96236,-2.8508 3.15416,-2.8508 0.1918,0 0.22648,0.4967 0.0771,1.10377 -1.09286,4.44044 -7.46111,10.34119 -16.27167,15.07715 -4.19923,2.25722 -12.88589,5.7981 -18.28401,7.45298 -5.91902,1.81456 -19.35337,5.10357 -24.66293,6.038 -9.11261,1.60372 -35.28309,4.71616 -47.56273,5.6566 -6.59103,0.50478 -67.03487,0.801 -81.88015,0.40127 z m -46.55929,-7.63365 c -0.13644,-0.22075 -1.12984,-0.40137 -2.20756,-0.40137 -1.07772,0 -2.07111,0.18062 -2.20755,0.40137 -0.15505,0.25088 0.67268,0.40138 2.20755,0.40138 1.53487,0 2.36261,-0.1505 2.20756,-0.40138 z"
         id="path4365" /><path
         style="fill:#00849a;fill-opacity:1;stroke-width:0.401373"
         d="m 606.21362,454.27606 c -0.82118,-0.20545 -1.90537,-2.61097 -1.27194,-2.82211 0.23732,-0.0791 2.84681,-1.59393 5.79887,-3.36627 15.21149,-9.13258 30.14494,-21.6428 36.00892,-30.1658 0.71529,-1.03964 2.32825,-4.10468 3.58435,-6.8112 2.07016,-4.46058 2.29738,-5.22135 2.42883,-8.13194 0.18557,-4.10934 -0.6411,-7.38761 -2.97465,-11.79631 -3.91699,-7.40026 -10.13246,-13.11032 -16.6669,-15.31161 -2.9332,-0.98812 -6.98756,-0.92552 -10.72667,0.16564 -1.48385,0.43302 -2.5942,0.52304 -3.61236,0.29287 -1.63335,-0.36924 -1.73406,-0.30807 3.04544,-1.84951 1.82123,-0.58736 3.31133,-1.23372 3.31133,-1.43635 0,-0.50315 -2.89933,-0.4657 -4.28864,0.0554 -0.62144,0.23309 -1.80936,0.89131 -2.63982,1.4627 -1.46075,1.00506 -1.5359,1.01538 -2.3079,0.31673 -0.43888,-0.39719 -0.79797,-0.84652 -0.79797,-0.99853 0,-0.152 1.44991,-0.8439 3.22202,-1.53755 15.10494,-5.91251 30.91058,-4.17379 42.50816,4.67617 3.56192,2.71805 6.85072,6.73014 9.16804,11.18433 l 1.6954,3.25877 v 8.67476 8.67475 l -2.36365,4.70996 c -2.76934,5.51838 -5.04912,8.74494 -9.23992,13.07722 -7.54684,7.80163 -19.55002,15.58226 -31.65852,20.52149 -4.46206,1.82015 -18.59949,6.71419 -20.55625,7.1161 -0.55189,0.11336 -1.30167,0.13149 -1.66617,0.0403 z m 7.76797,-3.88599 c 25.81893,-11.7983 38.95211,-20.13007 46.57938,-29.55022 1.9001,-2.34674 3.63092,-5.16746 5.54495,-9.03664 l 2.7826,-5.62497 v -5.7442 -5.74419 l -2.49086,-4.88645 c -2.13727,-4.19277 -2.94922,-5.34228 -5.71957,-8.09744 -3.74032,-3.71979 -6.54602,-5.48751 -11.16392,-7.03375 -4.73158,-1.58431 -10.0198,-2.38705 -17.15061,-2.60341 l -6.22129,-0.18876 3.85229,0.75264 c 5.6448,1.10286 8.21256,1.92622 11.78113,3.77767 4.23507,2.19724 8.50347,6.43868 11.38814,11.31621 l 2.13643,3.61236 -0.17814,8.909 c -0.16212,8.10748 -0.25502,9.0565 -1.03265,10.54841 -0.46998,0.90167 -0.85627,1.94992 -0.85843,2.32945 -0.0142,2.50135 -4.29706,8.68777 -10.07351,14.55083 -11.47934,11.65145 -25.83216,21.51875 -32.95803,22.65805 -1.61598,0.25836 -3.9252,1.93588 -3.9252,2.85142 0,0.31151 0.0786,0.56638 0.17458,0.56638 0.096,0 3.48575,-1.51307 7.53271,-3.36239 z"
         id="path4367" /><path
         style="fill:#00849a;fill-opacity:1;stroke-width:0.401373"
         d="m 450.34079,411.97222 c -7.24043,-0.30346 -29.83023,-2.44044 -37.92977,-3.58815 -11.6894,-1.65638 -18.85385,-3.72165 -23.63866,-6.81421 l -2.45061,-1.58391 10e-4,-2.11596 c 0.003,-4.60461 2.90187,-6.81303 16.1982,-12.34126 16.2132,-6.74099 27.76183,-9.77923 45.03894,-11.84895 9.89824,-1.18577 9.00168,-1.14378 9.00168,-0.42152 0,0.67913 -2.33406,1.41817 -4.4892,1.42143 -3.08627,0.005 -10.12319,1.97994 -9.4504,2.65273 0.10068,0.10069 2.41496,-0.0933 5.14283,-0.43097 2.72786,-0.33771 5.32639,-0.60002 5.77449,-0.58289 0.4481,0.0171 -3.06856,1.34794 -7.8148,2.95736 -4.74623,1.60942 -10.34539,3.60371 -12.44257,4.43177 -8.06034,3.18255 -13.24531,6.54547 -13.24531,8.59076 0,3.09641 7.06802,5.2581 24.48377,7.48815 l 8.22815,1.0536 20.67072,-0.44665 c 11.3689,-0.24565 24.91524,-0.62646 30.10299,-0.84623 35.08136,-1.48617 68.10185,-4.69266 86.80317,-8.42912 3.25955,-0.65125 6.39026,-1.18409 6.95713,-1.18409 1.54257,0 0.96175,0.95753 -0.74955,1.23569 -1.73356,0.28179 -5.18277,1.9929 -5.4137,2.68568 -0.24552,0.73659 1.20078,0.60305 3.56609,-0.32927 1.1484,-0.45266 2.55488,-0.76704 3.1255,-0.69862 0.96768,0.11601 0.90243,0.21195 -0.96936,1.42537 -1.10377,0.71554 -4.53551,2.57038 -7.62609,4.12186 -7.77146,3.90132 -14.7703,5.61819 -34.30103,8.41433 -24.72129,3.53926 -41.46814,4.62846 -77.48142,5.03932 -10.26512,0.11711 -19.20571,0.25414 -19.86797,0.3045 -0.66227,0.0504 -3.91339,-0.022 -7.22472,-0.16075 z m 29.50093,-2.77231 c 17.69164,-0.44841 29.42556,-0.98027 40.33801,-1.82839 33.03693,-2.56764 56.30156,-6.58233 66.82865,-11.53237 3.66019,-1.72109 2.28421,-1.80827 -5.27796,-0.3344 -14.59167,2.84393 -48.96345,6.1529 -71.8788,6.91978 -14.9095,0.49895 -52.53562,0.24426 -62.72182,-0.42456 -14.48827,-0.9513 -23.35111,-2.12416 -25.86159,-3.42238 -2.92581,-1.51299 -5.22019,-5.07954 -5.23602,-8.13924 -0.008,-1.54505 0.14969,-1.81907 1.69702,-2.94903 4.00376,-2.92379 15.30435,-7.61512 19.95607,-8.28457 2.41037,-0.34688 2.76559,-1.04676 0.62705,-1.23546 -1.83032,-0.1615 -7.0354,1.26657 -18.6766,5.12414 -16.7899,5.56371 -28.77008,10.95994 -29.51036,13.29235 -1.46807,4.62549 16.13176,9.0545 43.75911,11.012 4.85662,0.34411 10.18485,0.82778 11.84051,1.07482 8.03792,1.19931 12.08811,1.28565 34.11673,0.72731 z"
         id="path4369" /><path
         style="fill:#ff8413;fill-opacity:1;stroke-width:0.401373"
         d="m 497.66001,359.90588 c -24.40863,-23.20201 -35.35342,-37.76179 -40.929,-54.44757 l -1.83701,-5.49754 0.27628,-8.29563 0.27627,-8.29563 2.7862,-5.41853 c 4.05266,-7.88157 7.18557,-12.06551 14.58494,-19.47796 7.21808,-7.23083 13.22359,-12.39139 31.5078,-27.07472 14.81404,-11.89659 20.10261,-16.47505 26.75564,-23.16314 15.18891,-15.26895 24.02595,-30.12061 26.25896,-44.13121 0.68414,-4.2925 0.58602,-12.4646 -0.19691,-16.39859 -0.72135,-3.62461 -0.80087,-5.01717 -0.28649,-5.01717 0.82695,0 2.24986,5.55071 2.68821,10.48655 0.29006,3.26622 -0.28313,10.46799 -1.26659,15.91373 -2.1502,11.90634 -10.92839,26.49862 -24.32131,40.43009 -6.06976,6.31384 -11.20246,10.77085 -26.45908,22.97594 -18.91024,15.12793 -23.55063,19.18567 -34.03641,29.76284 l -9.39052,9.47235 -3.35308,6.97386 -3.35309,6.97387 v 7.98307 7.98307 l 2.71699,6.31585 c 6.06799,14.1055 11.62548,21.43909 36.89728,48.68907 6.77387,7.30411 9.61369,10.68209 9.26958,11.02622 -0.11146,0.11145 -3.97635,-3.38452 -8.58866,-7.76882 z"
         id="path4440" /><path
         style="fill:#ff8413;fill-opacity:1;stroke-width:0.401373"
         d="m 504.50728,360.7639 c -8.2656,-9.60571 -18.062,-24.58521 -24.42674,-37.35048 l -3.04843,-6.11401 v -14.12215 -14.12215 l 2.45394,-4.64898 c 7.45749,-14.12814 14.28035,-21.80117 34.4724,-38.76787 18.54556,-15.58322 28.74977,-26.35675 37.36852,-39.45338 4.02869,-6.1218 7.91322,-13.79465 10.50534,-20.75044 l 1.79488,-4.81648 0.47129,-10.08224 0.47129,-10.08224 -2.24383,-8.18024 c -1.23411,-4.49913 -2.34338,-8.99302 -2.46505,-9.98642 l -0.22121,-1.80618 0.80355,1.25356 c 0.93219,1.45424 2.71499,5.44188 4.46606,9.98934 l 1.22768,3.18822 v 12.70814 12.70814 l -1.58367,4.59281 c -3.25216,9.43162 -7.05355,16.83023 -12.98366,25.26997 -5.23387,7.44886 -9.83283,12.74247 -19.32139,22.2398 -8.86293,8.87112 -12.67205,12.32737 -24.30179,22.05053 -18.18816,15.20639 -26.51784,26.19959 -29.15295,38.47499 -0.81388,3.7914 -0.81469,11.21285 -0.002,15.52979 2.13561,11.33989 8.02571,23.08993 22.31806,44.52184 3.91983,5.87793 6.59515,10.40095 6.31674,10.67936 -0.11942,0.11941 -1.43312,-1.19604 -2.91934,-2.92323 z"
         id="path4442" /><path
         style="fill:#ff8413;fill-opacity:1;stroke-width:0.401373"
         d=""
         id="path4444" /><path
         style="fill:#ff8413;fill-opacity:1;stroke-width:0.401373"
         d="m 533.43613,379.39807 c 2.18616,-3.51812 5.04079,-9.93054 5.89942,-13.25199 l 0.88878,-3.43809 -0.90475,-4.14771 c -1.27087,-5.82607 -3.17333,-9.36587 -9.79567,-18.22623 -7.03882,-9.41759 -9.51031,-13.18848 -11.7528,-17.93192 -3.59361,-7.60143 -5.05654,-13.85714 -5.04493,-21.57288 0.0307,-20.43877 13.81819,-38.98919 40.70598,-54.76817 9.89293,-5.80562 33.81606,-16.39685 39.38792,-17.43778 0.9563,-0.17866 2.23166,-0.71257 2.83413,-1.18647 0.60246,-0.4739 1.56773,-0.85589 2.14503,-0.84886 1.02617,0.0125 1.03169,0.0267 0.2469,0.63513 -1.36971,1.06194 -6.53287,3.54375 -13.64669,6.55964 -8.85695,3.75489 -23.24571,10.85185 -29.09956,14.35277 -10.58416,6.3299 -16.86934,11.13485 -25.62062,19.58667 -5.73607,5.53979 -5.7599,5.57032 -8.27335,10.60156 -4.72922,9.4666 -7.42473,17.73516 -7.53478,23.11315 -0.0483,2.36158 0.10983,3.10532 0.98151,4.61579 0.57151,0.99033 1.25749,2.88431 1.5244,4.20884 0.71446,3.54545 2.20858,7.47726 4.70453,12.38008 2.77608,5.45309 5.59369,9.71464 11.31982,17.12086 2.47482,3.20095 5.11317,7.02626 5.863,8.50068 5.36523,10.5499 4.07002,24.45556 -2.86851,30.79699 -1.22992,1.12407 -2.41252,2.04377 -2.628,2.04377 -0.21547,0 0.0852,-0.76762 0.66824,-1.70583 z"
         id="path4446" /><path
         style="fill:#ff8413;fill-opacity:1;stroke-width:0.401373"
         d="m 536.43535,286.00763 c 0,-4.02767 0.002,-4.03537 1.80748,-7.2996 2.86971,-5.18806 5.21243,-8.19583 11.02297,-14.15218 12.28907,-12.59745 28.67367,-24.59608 44.24768,-32.4031 4.77335,-2.3928 6.65105,-2.94048 4.41598,-1.28802 -0.64155,0.47433 -4.49012,3.07191 -8.55236,5.77241 -19.49735,12.96146 -30.26911,21.40048 -39.56673,30.99813 -6.99037,7.21594 -10.7302,13.09621 -11.24779,17.68529 -0.23469,2.08079 -0.97796,4.0087 -1.723,4.46916 -0.26114,0.1614 -0.40423,-1.17737 -0.40423,-3.78209 z"
         id="path4448" /><path
         style="fill:#ff8413;fill-opacity:1;stroke-width:0.401373"
         d="m 536.16445,381.88509 c 0.31755,-0.45337 3.19408,-3.65934 6.39228,-7.12437 9.63396,-10.43775 11.59919,-13.03216 14.9564,-19.7447 l 2.30784,-4.61442 -0.26202,-4.61717 c -0.50689,-8.93238 -1.23994,-10.58656 -11.74223,-26.4971 -4.00537,-6.06797 -8.20474,-12.76357 -9.33193,-14.87911 l -2.04944,-3.84643 0.0177,-4.58241 0.0177,-4.5824 0.81137,1.53785 c 0.44625,0.84582 0.96699,2.49398 1.15718,3.66259 0.61785,3.79623 4.89923,11.69481 11.36944,20.97511 6.36168,9.12464 9.07686,13.87055 11.15889,19.50482 l 1.21471,3.28717 -0.48547,6.42197 -0.48546,6.42197 -3.32603,6.65634 -3.32603,6.65634 -7.15552,6.66531 c -7.73432,7.20447 -10.47286,9.51296 -11.29235,9.51905 -0.41433,0.003 -0.40323,-0.16921 0.0529,-0.82041 z"
         id="path4450" /><path
         style="fill:#00849a;fill-opacity:1;stroke-width:0.283814"
         d="m 909.23673,623.78278 c -0.19831,-2.62628 -0.39127,-4.80576 -0.4288,-4.84329 -0.0375,-0.0375 -0.55196,0.0653 -1.14318,0.22858 -0.59123,0.16325 -1.14121,0.23057 -1.22217,0.1496 -0.081,-0.081 0.051,-0.72886 0.2932,-1.43976 1.04583,-3.06935 -1.25723,-0.39021 -5.04924,5.87375 -1.20483,1.99025 -2.29911,3.61863 -2.43174,3.61863 -0.13263,0 -1.6006,-2.39468 -3.26215,-5.32151 -1.66156,-2.92683 -3.12166,-5.42664 -3.24468,-5.55514 -0.12302,-0.1285 -0.52722,0.25465 -0.89823,0.85144 l -0.67457,1.08508 -0.0851,-1.63193 c -0.0771,-1.47797 -0.14537,-1.63193 -0.72373,-1.63193 -0.6336,0 -1.31976,0.47218 -1.31976,0.9082 0,0.12488 0.18591,0.22705 0.41313,0.22705 0.36094,0 0.36038,0.14952 -0.004,1.18334 -0.22963,0.65084 -0.57181,3.10938 -0.7604,5.46342 l -0.3429,4.28007 -0.23464,-2.27051 c -0.38178,-3.69434 -0.1113,-8.93051 0.52909,-10.2423 1.25109,-2.56276 3.26414,-1.19496 6.51116,4.42412 3.77562,6.53385 4.18882,6.49169 8.86662,-0.90463 2.70205,-4.27234 3.74424,-5.51267 4.41558,-5.25505 0.85203,0.32696 1.59663,5.43594 1.58024,10.84261 -0.0165,5.43211 -0.37152,5.41405 -0.78334,-0.0398 z"
         id="path4728" /><path
         style="fill:#00849a;fill-opacity:1;stroke-width:0.0501717"
         d="m 887.25359,632.18226 c -0.26609,-0.0755 -0.74464,-0.48164 -0.88014,-0.74688 -0.15378,-0.30105 -0.20675,-0.61178 -0.26849,-1.57504 -0.0671,-1.04712 -0.0665,-7.98894 10e-4,-11.11839 0.0675,-3.12809 0.24722,-9.84618 0.26387,-9.86216 0.007,-0.007 0.2956,-0.0704 0.64127,-0.14148 0.88773,-0.18251 2.52811,-0.26701 3.70021,-0.1906 0.95343,0.0622 1.60808,0.18249 2.98818,0.54924 l 0.89491,0.23782 1.06718,2.8347 c 2.17355,5.77344 2.71887,6.94516 3.42491,7.35892 l 0.22997,0.13477 0.27254,-0.14269 c 0.80211,-0.41996 1.33636,-1.62737 4.08231,-9.22606 l 0.72292,-2.00048 0.65223,0.0307 c 1.05846,0.0498 6.29647,0.49421 6.57825,0.55813 0.0999,0.0227 0.10804,0.0656 0.13949,0.73976 0.0184,0.39363 0.12251,4.14743 0.23144,8.34178 0.22178,8.54038 0.28259,10.66959 0.3525,12.34223 0.0265,0.63467 0.0483,1.20475 0.0483,1.26683 l 1.2e-4,0.11289 h -2.5278 -2.5278 l -0.0293,-1.94415 c -0.0479,-3.17429 -0.13114,-6.17913 -0.1838,-6.6352 -0.0996,-0.86225 -0.20978,-1.16257 -0.4726,-1.2879 -0.64938,-0.30967 -1.26087,0.61908 -2.45005,3.72122 -0.26227,0.68417 -1.86521,5.1202 -2.18219,6.03909 l -0.0756,0.21917 -0.45735,-0.035 c -1.14007,-0.0872 -4.64611,-0.54827 -4.80137,-0.63136 -0.10098,-0.054 -0.47082,-1.01698 -2.20553,-5.74242 -1.54583,-4.21095 -1.89838,-5.14889 -1.9603,-5.21535 -0.15883,-0.17046 -0.24566,0.43841 -0.39317,2.75694 -0.28784,4.52432 -0.6189,6.63169 -1.23417,7.85614 -0.29676,0.59059 -0.93738,1.04669 -1.82874,1.30198 -0.432,0.12373 -1.51003,0.17893 -1.81325,0.0928 z m 22.52832,-2.16423 c 0.12321,-0.38534 0.30613,-2.22261 0.40586,-4.07644 0.20457,-3.80258 -0.16307,-8.93269 -0.82706,-11.54081 -0.32752,-1.28649 -0.6326,-1.73034 -1.18852,-1.72913 -0.78918,0.002 -1.81382,1.30296 -4.40468,5.59367 -2.23312,3.69826 -3.24603,5.04037 -4.11339,5.45021 -0.52827,0.24961 -1.08023,0.0762 -1.68525,-0.52954 -0.57378,-0.57445 -1.08022,-1.37659 -2.98001,-4.71998 -0.39199,-0.68986 -0.88359,-1.52848 -1.09243,-1.86361 -1.02542,-1.64542 -2.08718,-2.77746 -3.02291,-3.22299 -0.32593,-0.15518 -0.42579,-0.17909 -0.75258,-0.18017 -0.30004,-10e-4 -0.42788,0.0238 -0.62764,0.1218 -0.89152,0.43731 -1.38076,1.69338 -1.69131,4.34222 -0.0991,0.84524 -0.0837,4.14026 0.0257,5.51888 0.27035,3.40485 0.57689,6.14603 0.6873,6.14603 0.0411,0 0.0551,-0.27204 0.17751,-3.43676 0.21343,-5.51951 0.52978,-7.80968 1.28906,-9.33192 0.25064,-0.50251 0.69348,-1.24319 0.72464,-1.21203 0.0129,0.0129 0.055,0.86402 0.0936,1.89142 0.0386,1.02741 0.0811,1.87887 0.0943,1.89213 0.0133,0.0133 0.19096,-0.23253 0.39488,-0.54621 1.37473,-2.11468 1.34699,-2.07571 1.40354,-1.97256 0.83633,1.52567 5.26376,9.27874 5.91491,10.35786 0.683,1.13193 0.62019,1.06199 0.78716,0.87656 0.19915,-0.22117 0.75602,-1.11651 1.96499,-3.15937 2.04366,-3.45323 3.05327,-5.03538 4.10442,-6.43191 0.61638,-0.81891 1.37611,-1.6727 1.43624,-1.61405 0.0348,0.0339 -0.14409,0.59536 -0.59427,1.8651 -0.15464,0.43614 -0.28116,0.87366 -0.28116,0.97226 v 0.17928 l 0.26331,-0.0349 c 0.14482,-0.0192 0.72839,-0.13501 1.29682,-0.25732 0.56843,-0.12232 1.04572,-0.22239 1.06065,-0.22239 0.0725,0 0.15491,0.88023 0.4908,5.24293 0.25275,3.28281 0.42638,5.33017 0.47762,5.63177 0.0152,0.0897 0.0475,0.16306 0.0717,0.16306 0.0242,0 0.0675,-0.0734 0.0961,-0.16306 z"
         id="path4730" /><path
         style="fill:#00849a;fill-opacity:1;stroke-width:0.0501717"
         d="m 898.98716,627.48436 c -0.54881,-0.89035 -1.11708,-1.8664 -2.50901,-4.30942 -2.60202,-4.56686 -3.26054,-5.7407 -3.23491,-5.76632 0.0312,-0.0312 0.3739,0.55167 2.24415,3.81683 2.28833,3.99505 3.49484,5.97518 3.72724,6.11713 0.0721,0.044 0.11172,0.0263 0.21513,-0.0965 0.244,-0.28975 1.57252,-2.31976 2.38048,-3.63745 1.11222,-1.81388 1.91449,-3.06943 1.94305,-3.04087 0.0131,0.0131 -0.21244,0.40346 -0.50111,0.86754 -0.48934,0.78669 -0.95102,1.55551 -2.57043,4.28054 -0.61256,1.03078 -1.36087,2.20756 -1.40376,2.20756 -0.0111,0 -0.142,-0.19756 -0.29083,-0.43901 z"
         id="path4732" /><path
         style="fill:#00849a;fill-opacity:1;stroke-width:0.0501717"
         d=""
         id="path4734" /><path
         style="fill:#00849a;fill-opacity:1;stroke-width:0.0501717"
         d="m 909.67022,629.9804 c -0.0505,-0.19358 -0.2061,-1.99772 -0.51071,-5.92025 -0.36794,-4.73788 -0.39132,-4.967 -0.50687,-4.967 -0.0385,0 -0.27869,0.0467 -0.53365,0.10387 -0.68506,0.15349 -1.89903,0.39785 -1.97653,0.39785 -0.11886,0 -0.0741,-0.2559 0.16233,-0.92817 0.12616,-0.35873 0.31693,-0.90059 0.42393,-1.20412 0.25517,-0.72389 0.2552,-0.47767 3e-5,0.34021 -0.10956,0.35117 -0.23656,0.82291 -0.28223,1.0483 -0.08,0.3948 -0.0796,0.41235 0.0111,0.47911 0.12177,0.0897 0.37942,0.0576 1.34838,-0.16781 0.41392,-0.0963 0.80232,-0.18529 0.86312,-0.19778 0.0923,-0.019 0.11498,0.004 0.13743,0.14072 0.0454,0.27568 0.1677,1.66316 0.35503,4.02664 0.23425,2.95545 0.38707,4.30093 0.53169,4.68132 0.09,0.23681 0.18424,0.0259 0.25334,-0.56724 0.0891,-0.7651 0.09,-5.72652 0.001,-7.04912 -0.26303,-3.91979 -0.80253,-6.704 -1.38833,-7.16479 -0.4138,-0.3255 -1.06055,0.13218 -2.06026,1.45796 -0.43727,0.5799 -1.84896,2.70296 -3.07637,4.62661 -0.45147,0.70756 -0.83189,1.27546 -0.84536,1.26198 -0.0135,-0.0135 0.12156,-0.25743 0.30008,-0.54213 0.17853,-0.2847 0.69259,-1.12722 1.14238,-1.87227 1.66354,-2.75561 2.50354,-3.9771 3.24653,-4.72096 0.54918,-0.54983 0.99254,-0.67171 1.3385,-0.36795 0.24035,0.21103 0.35917,0.41788 0.52951,0.92184 0.38157,1.12883 0.71528,3.27952 0.93851,6.04851 0.12432,1.54223 0.12451,5.74636 3e-4,7.27489 -0.11041,1.35876 -0.22355,2.36084 -0.30625,2.71232 -0.0547,0.23246 -0.0691,0.25431 -0.0969,0.14746 z"
         id="path4742" /><path
         style="fill:#00849a;fill-opacity:1;stroke-width:0.0501717"
         d="m 888.40052,628.52543 c -0.18424,-1.3436 -0.46092,-4.38506 -0.59334,-6.52232 -0.0748,-1.20781 -0.032,-3.70968 0.079,-4.61579 0.28643,-2.33757 0.76116,-3.53704 1.57527,-3.98014 0.35889,-0.19533 0.66952,-0.22137 1.093,-0.0916 0.5013,0.15359 0.91927,0.44938 1.60028,1.13249 0.87546,0.87818 1.46086,1.71878 2.64092,3.79219 0.29054,0.51049 0.77049,1.35332 1.06655,1.87295 0.29605,0.51963 0.52807,0.95499 0.5156,0.96746 -0.0211,0.0211 -0.20757,-0.28545 -1.51435,-2.48921 -1.71562,-2.89325 -3.16806,-4.63305 -4.19293,-5.02246 -0.34096,-0.12956 -0.80627,-0.12572 -1.08445,0.009 -0.5061,0.245 -0.98871,0.99647 -1.19389,1.85902 -0.36794,1.54673 -0.56063,4.8964 -0.434,7.54451 0.0485,1.01459 0.31948,4.05283 0.37587,4.21442 0.0368,0.10535 0.0838,-0.37293 0.25669,-2.60893 0.23376,-3.02355 0.26254,-3.13726 0.12701,-0.50172 -0.0255,0.4967 -0.0725,1.67072 -0.10436,2.60893 -0.0319,0.93821 -0.0734,1.87517 -0.0924,2.08212 l -0.0345,0.37629 z"
         id="path4744" /><path
         style="fill:#00849a;fill-opacity:1;stroke-width:0.0501717"
         d="m 890.90398,618.63433 c -0.0158,-0.20296 -0.0409,-0.80926 -0.0558,-1.34736 -0.0149,-0.53809 -0.0377,-1.2154 -0.0507,-1.50515 l -0.0237,-0.5268 0.0981,0.20494 c 0.11125,0.2324 0.1795,0.85349 0.23265,2.11716 0.0189,0.44933 0.0498,0.82647 0.0686,0.83809 0.0188,0.0116 0.22429,-0.2849 0.45661,-0.65896 0.40641,-0.65436 0.73676,-1.09982 0.78204,-1.05454 0.0183,0.0183 -1.33176,2.13411 -1.44127,2.25873 -0.0207,0.0236 -0.0506,-0.12316 -0.0664,-0.32611 z"
         id="path4746" /><path
         style="fill:#00849a;fill-opacity:1;stroke-width:0.0501717"
         d="m 871.76153,625.99647 c -0.0897,-0.10809 -0.14503,-1.03157 -0.1806,-3.01501 -0.055,-3.0663 0.0608,-5.10976 0.35125,-6.1962 l 0.0738,-0.27595 -0.0252,0.25086 c -0.0927,0.92194 -0.12833,2.24613 -0.13744,5.11063 -0.01,3.07919 0.008,3.64433 0.11315,3.64433 0.13339,0 0.51971,-3.02436 0.71137,-5.56906 0.0709,-0.94091 0.0892,-3.71492 0.0269,-4.08006 -0.0227,-0.13306 -0.0848,-0.28546 -0.13797,-0.33866 -0.0751,-0.0751 -0.0802,-0.0967 -0.0226,-0.0967 0.11314,0 0.21268,0.19264 0.28034,0.54254 0.20385,1.05431 -0.25993,7.20341 -0.7099,9.41219 -0.13461,0.66073 -0.20209,0.78095 -0.34303,0.61112 z"
         id="path4748" /><path
         style="fill:#00849a;fill-opacity:1;stroke-width:0.141907"
         d="m 790.43396,676.81708 c -1.44412,-0.36221 -1.96324,-1.05542 -4.54031,-6.06289 -1.03314,-2.00749 -2.06974,-3.93734 -2.30355,-4.28856 -0.23382,-0.35122 -0.66785,-1.18137 -0.96453,-1.84479 -0.29667,-0.66341 -0.70746,-1.44171 -0.91286,-1.72955 -0.20541,-0.28785 -0.63596,-0.8945 -0.95678,-1.34812 -0.80563,-1.13909 -2.99828,-5.19895 -5.14926,-9.53423 -1.98386,-3.99845 -2.62946,-5.47441 -2.76996,-6.33266 -0.0749,-0.45771 0.089,-0.22412 0.84673,1.2062 0.51681,0.97561 1.90238,3.5938 3.07905,5.81819 2.76091,5.21929 6.67269,12.38842 8.50158,15.58088 3.15655,5.50999 4.5652,7.62689 5.17741,7.78054 3.19794,0.80264 13.18505,-13.92033 24.26968,-35.77828 1.5832,-3.12195 2.88007,-5.59252 2.88192,-5.49015 0.004,0.21942 -7.99814,16.25617 -9.50181,19.04226 -0.56867,1.05366 -1.18117,2.09166 -1.36111,2.30666 -0.1895,0.22643 -0.36444,0.67426 -0.41574,1.0643 -0.13052,0.99218 -0.47696,1.70256 -1.31327,2.69293 -1.08043,1.27946 -1.74422,2.35987 -3.10825,5.05906 -1.53232,3.03224 -2.34727,4.40813 -3.45604,5.83492 -0.48522,0.62439 -1.19296,1.78338 -1.57276,2.57552 -0.79293,1.65382 -1.48776,2.38088 -2.92442,3.06009 -0.98302,0.46475 -2.52057,0.63478 -3.50572,0.38768 z"
         id="path4750" /></g></g></svg>
