<?xml version="1.0" encoding="UTF-8" standalone="no"?>
<!-- Created with Inkscape (http://www.inkscape.org/) -->

<svg width="1000" height="1000" viewBox="0 0 264.58333 264.58333" version="1.1" id="svg5" xml:space="preserve"
  xmlns="http://www.w3.org/2000/svg" xmlns:svg="http://www.w3.org/2000/svg">
  <defs id="defs2" />
  <g id="layer1">
    <g id="g204">
      <path style="fill:#d4eefd;stroke-width:0.264583"
        d="m 130.25768,257.25924 c 0.191,-0.0764 0.4192,-0.067 0.50712,0.0209 0.0879,0.0879 -0.0684,0.15046 -0.34727,0.13898 -0.30822,-0.0127 -0.37091,-0.0754 -0.15985,-0.15986 z m 3.29439,-0.009 c 0.40219,-0.0608 0.9975,-0.0592 1.32292,0.004 0.32542,0.0628 -0.004,0.11256 -0.73124,0.11057 -0.7276,-0.003 -0.99386,-0.0534 -0.59168,-0.11419 z m 3.03908,-0.24995 c 0.1819,-0.0734 0.47955,-0.0734 0.66145,0 0.1819,0.0734 0.0331,0.13345 -0.33073,0.13345 -0.3638,0 -0.51263,-0.0601 -0.33072,-0.13345 z m 1.60403,-0.27009 c 0.191,-0.0764 0.4192,-0.067 0.50712,0.0209 0.0879,0.0879 -0.0684,0.15047 -0.34727,0.13899 -0.30822,-0.0127 -0.37091,-0.0754 -0.15985,-0.15986 z m 98.87148,-57.23398 c 0.2634,-0.29104 0.53843,-0.52917 0.61119,-0.52917 0.0728,0 -0.0832,0.23813 -0.3466,0.52917 -0.2634,0.29104 -0.53843,0.52916 -0.61119,0.52916 -0.0728,0 0.0832,-0.23812 0.3466,-0.52916 z m 2.64584,-2.64584 c 0.26339,-0.29104 0.53842,-0.52916 0.61118,-0.52916 0.0728,0 -0.0832,0.23812 -0.3466,0.52916 -0.26339,0.29105 -0.53843,0.52917 -0.61119,0.52917 -0.0728,0 0.0832,-0.23812 0.34661,-0.52917 z M 18.253771,132.95352 c 3e-6,-30.26834 0.03088,-42.61157 0.06862,-27.42941 0.03774,15.18216 0.03774,39.94716 -5e-6,55.03334 -0.03774,15.08617 -0.06861,2.6644 -0.06861,-27.60393 z m 227.432729,51.5717 c 0.0127,-0.30822 0.0754,-0.37092 0.15986,-0.15985 0.0764,0.19099 0.067,0.4192 -0.0209,0.50712 -0.0879,0.0879 -0.15047,-0.0684 -0.13899,-0.34727 z m 0.28548,-1.69774 c 0,-0.3638 0.0601,-0.51263 0.13346,-0.33073 0.0734,0.1819 0.0734,0.47956 0,0.66146 -0.0734,0.1819 -0.13346,0.0331 -0.13346,-0.33073 z m -116.19386,-1.73054 c -2.14935,-0.6009 -40.261558,-22.14379 -41.71407,-23.57883 -2.01884,-1.99457 -1.942682,-0.95212 -1.938264,-26.53084 0.0034,-19.37942 0.06216,-22.88717 0.408401,-24.35621 0.477525,-2.02611 1.281514,-3.47421 2.674818,-4.81773 1.108633,-1.06903 36.705575,-22.202044 38.849325,-23.063882 1.93011,-0.775946 5.60064,-0.744619 7.40834,0.06323 0.7276,0.325162 9.58923,5.257996 19.6925,10.961854 12.8653,7.263175 18.78064,10.745268 19.74139,11.620878 0.83323,0.75938 1.77555,2.00588 2.4002,3.175 l 1.0284,1.92477 v 23.03248 23.03247 l -0.99886,2.02106 c -0.66817,1.35196 -1.41272,2.38578 -2.24896,3.12272 -1.28899,1.13594 -34.69219,21.01115 -38.07085,22.65251 -2.30964,1.12203 -4.91396,1.38869 -7.23237,0.74052 z m 116.54631,-52.11217 c 0,-28.23104 0.031,-39.74087 0.0688,-25.57739 0.0378,14.16348 0.0378,37.26161 -3e-5,51.32917 -0.0378,14.06756 -0.0688,2.47926 -0.0688,-25.75178 z m -0.35245,-53.578129 c 0,-0.363802 0.0601,-0.51263 0.13346,-0.330729 0.0734,0.181901 0.0734,0.479558 0,0.661459 -0.0734,0.181901 -0.13346,0.03307 -0.13346,-0.33073 z m -0.28548,-1.741839 c 0.0127,-0.308226 0.0754,-0.370919 0.15986,-0.159853 0.0764,0.190994 0.067,0.4192 -0.0209,0.507119 -0.0879,0.08792 -0.15047,-0.06835 -0.13899,-0.347266 z M 23.680211,62.871328 c 0,-0.05494 0.208359,-0.2633 0.463021,-0.46302 0.419645,-0.329108 0.429003,-0.319749 0.0999,0.0999 -0.345644,0.440729 -0.562917,0.580887 -0.562917,0.363124 z m 216.007149,-1.024583 -0.50403,-0.595312 0.59531,0.504028 c 0.55944,0.473663 0.71575,0.686597 0.50403,0.686597 -0.0502,0 -0.31811,-0.267891 -0.59531,-0.595313 z M 26.855211,59.696328 c 0,-0.05494 0.208359,-0.2633 0.463021,-0.463021 0.419645,-0.329107 0.429003,-0.319749 0.0999,0.0999 -0.345644,0.440729 -0.562917,0.580887 -0.562917,0.363124 z m 209.657149,-1.024583 -0.50403,-0.595312 0.59531,0.504028 c 0.55944,0.473663 0.71575,0.686597 0.50403,0.686597 -0.0502,0 -0.31811,-0.267891 -0.59531,-0.595313 z M 125.2306,2.7300666 c 0.19099,-0.07643 0.4192,-0.067032 0.50712,0.020876 0.0879,0.087918 -0.0684,0.1504527 -0.34727,0.1389645 -0.30822,-0.0127 -0.37092,-0.07539 -0.15985,-0.1598507 z m 10.84791,0 c 0.191,-0.07643 0.41921,-0.067032 0.50712,0.020876 0.0879,0.087918 -0.0684,0.1504527 -0.34726,0.1389645 -0.30823,-0.0127 -0.37092,-0.07539 -0.15986,-0.1598507 z m -9.54153,-0.2590721 c 0.1819,-0.073398 0.47956,-0.073398 0.66146,0 0.1819,0.073398 0.0331,0.1334532 -0.33073,0.1334532 -0.3638,0 -0.51263,-0.060055 -0.33073,-0.1334532 z m 7.95403,-0.0055 c 0.191,-0.07643 0.41921,-0.067032 0.50712,0.020876 0.0879,0.087918 -0.0684,0.1504527 -0.34726,0.1389645 -0.30823,-0.0127 -0.37092,-0.07539 -0.15986,-0.1598507 z m -4.77903,-0.2775744 c 0.61846,-0.055703 1.63049,-0.055703 2.24896,0 0.61846,0.055705 0.11244,0.1012825 -1.12448,0.1012825 -1.23693,0 -1.74294,-0.045577 -1.12448,-0.1012825 z"
        id="path218" />
      <path style="fill:#4184f2;stroke-width:0.264583"
        d="m 133.01792,232.14539 0.0675,-25.10854 1.4552,-0.16328 c 1.73372,-0.19452 3.5381,-0.66856 4.63021,-1.21641 2.51546,-1.26186 55.38441,-32.63678 56.37593,-33.45612 1.67325,-1.38269 3.11953,-3.2026 4.05467,-5.10216 1.69794,-3.449 1.61419,-1.49175 1.61419,-37.7248 0,-36.375104 0.10972,-33.913201 -1.67171,-37.511715 -0.69986,-1.41374 -0.76652,-1.706303 -0.43696,-1.917769 1.34926,-0.865774 42.08936,-25.148876 42.37926,-25.260115 0.70601,-0.270925 3.06644,4.496734 4.08546,8.25196 0.47059,1.734151 0.49083,4.051009 0.49083,56.180619 v 54.37188 l -0.60132,2.38125 c -1.32178,5.23427 -4.88879,10.87252 -8.87783,14.03293 -2.3899,1.89344 -91.19293,54.36104 -93.80079,55.42043 -2.5558,1.03823 -4.8851,1.5866 -7.51568,1.7694 l -2.31645,0.16095 z m 44.5345,-77.97047 c 0.0994,-0.26094 0.24731,-0.40778 0.32877,-0.32632 0.0815,0.0815 1.7e-4,0.29496 -0.18065,0.47443 -0.26131,0.25936 -0.2917,0.22897 -0.14812,-0.14811 z m 0.66534,-2.19345 c 0.0127,-0.30823 0.0754,-0.37092 0.15985,-0.15985 0.0764,0.19099 0.067,0.4192 -0.0209,0.50712 -0.0879,0.0879 -0.15046,-0.0684 -0.13897,-0.34727 z m 0.36974,-22.33524 c 0,-11.56891 0.0325,-16.30164 0.0723,-10.51719 0.0398,5.78445 0.0398,15.24992 0,21.03437 -0.0398,5.78446 -0.0723,1.05172 -0.0723,-10.51718 z"
        id="path216" />
      <path style="fill:#3bda83;stroke-width:0.264583"
        d="m 88.238542,102.57593 c 0,-0.0455 0.386953,-0.43248 0.859896,-0.85989 l 0.859896,-0.77711 -0.777105,0.8599 c -0.724371,0.80154 -0.942687,0.98151 -0.942687,0.7771 z m 86.651038,-1.18101 c -0.58208,-0.5423 -1.35599,-1.19935 -1.71979,-1.46012 -0.63857,-0.457721 -0.63153,-0.457925 0.20318,-0.0059 0.75236,0.40744 3.02025,2.47657 2.69479,2.4586 -0.0659,-0.004 -0.5961,-0.45031 -1.17818,-0.99261 z m -83.983157,-1.2139 c 0.06063,-0.053 0.4079,-0.238208 0.771703,-0.411468 0.623694,-0.297034 0.632137,-0.291526 0.147867,0.09645 -0.421481,0.337678 -1.282663,0.632698 -0.91957,0.315018 z m 1.565453,-0.810967 c 0,-0.07276 0.238125,-0.259734 0.529166,-0.415494 0.291042,-0.15576 0.529167,-0.223671 0.529167,-0.150911 0,0.07276 -0.238125,0.259734 -0.529167,0.415494 -0.291041,0.15576 -0.529166,0.223671 -0.529166,0.150911 z m 79.044264,-0.302245 c -0.98912,-0.536612 -0.92892,-0.76011 0.0661,-0.245541 0.43656,0.225756 0.79375,0.466937 0.79375,0.535961 0,0.17026 -0.0284,0.160658 -0.8599,-0.29042 z M 93.794792,98.576303 c 0,-0.07276 0.238125,-0.259734 0.529167,-0.415494 0.291041,-0.15576 0.529166,-0.223671 0.529166,-0.150911 0,0.07276 -0.238125,0.259734 -0.529166,0.415494 -0.291042,0.15576 -0.529167,0.223671 -0.529167,0.150911 z m 75.869268,-0.566828 c -0.98913,-0.536612 -0.92892,-0.760111 0.0661,-0.245541 0.43656,0.225756 0.79375,0.466936 0.79375,0.535961 0,0.170259 -0.0284,0.160658 -0.8599,-0.29042 z M 95.117709,97.777523 c 0,-0.07276 0.357187,-0.317 0.79375,-0.542756 0.436562,-0.225756 0.79375,-0.350933 0.79375,-0.278172 0,0.07276 -0.357188,0.317 -0.79375,0.542755 -0.436563,0.225756 -0.79375,0.350933 -0.79375,0.278173 z m 72.694271,-0.826381 c -0.98913,-0.536612 -0.92892,-0.760111 0.0661,-0.245542 0.43657,0.225756 0.79375,0.466937 0.79375,0.535962 0,0.170259 -0.0284,0.160657 -0.85989,-0.29042 z M 96.969792,96.724219 c 0,-0.07276 0.238125,-0.259733 0.529167,-0.415494 0.291041,-0.15576 0.529166,-0.22367 0.529166,-0.15091 0,0.07276 -0.238125,0.259734 -0.529166,0.415494 -0.291042,0.15576 -0.529167,0.223671 -0.529167,0.15091 z m 1.322917,-0.79375 c 0,-0.07276 0.238125,-0.259733 0.529166,-0.415494 0.291042,-0.15576 0.529167,-0.22367 0.529167,-0.15091 0,0.07276 -0.238125,0.259734 -0.529167,0.415494 -0.291041,0.15576 -0.529166,0.223671 -0.529166,0.15091 z m 67.138021,-0.302244 c -0.98913,-0.536612 -0.92892,-0.760111 0.0661,-0.245541 0.43657,0.225755 0.79375,0.466936 0.79375,0.535961 0,0.170259 -0.0284,0.160658 -0.85989,-0.29042 z M 99.747917,95.064528 c 0.145521,-0.150125 0.859893,-0.606031 1.587503,-1.013127 0.7276,-0.407099 1.20385,-0.61735 1.05833,-0.467228 -0.14552,0.150125 -0.8599,0.606031 -1.5875,1.013127 -0.7276,0.407098 -1.203854,0.617349 -1.058333,0.467228 z m 63.830723,-0.494636 c -0.98912,-0.536612 -0.92892,-0.760111 0.0661,-0.245542 0.43656,0.225756 0.79375,0.466937 0.79375,0.535962 0,0.170259 -0.0284,0.160657 -0.8599,-0.29042 z m -1.85208,-1.058334 c -0.98913,-0.536612 -0.92892,-0.760111 0.0661,-0.245541 0.43656,0.225756 0.79375,0.466937 0.79375,0.535961 0,0.17026 -0.0284,0.160658 -0.8599,-0.29042 z m -58.93593,-0.226922 c 0,-0.07276 0.23812,-0.259734 0.52916,-0.415494 0.29104,-0.15576 0.52917,-0.223671 0.52917,-0.15091 0,0.07276 -0.23813,0.259733 -0.52917,0.415493 -0.29104,0.155761 -0.52916,0.223671 -0.52916,0.150911 z m 1.32291,-0.79375 c 0,-0.07276 0.23813,-0.259734 0.52917,-0.415494 0.29104,-0.15576 0.52917,-0.223671 0.52917,-0.15091 0,0.07276 -0.23813,0.259733 -0.52917,0.415493 -0.29104,0.155761 -0.52917,0.223671 -0.52917,0.150911 z m 55.23177,-0.302244 c -0.98913,-0.536613 -0.92892,-0.760111 0.0661,-0.245542 0.43656,0.225756 0.79375,0.466937 0.79375,0.535961 0,0.17026 -0.0284,0.160658 -0.8599,-0.290419 z M 43.135123,79.889713 C 31.229149,73.220522 21.387059,67.663073 21.263816,67.53983 20.955733,67.231747 22.712995,64.323822 24.473961,62.227669 25.274325,61.27496 26.724105,59.891657 27.695694,59.15366 29.752046,57.5917 117.03704,6.0464944 119.98854,4.6511189 c 3.58668,-1.695667 5.62285,-2.0983073 10.71563,-2.1189527 5.04484,-0.020452 7.21521,0.3936312 10.83023,2.0662795 2.23408,1.0337006 89.48402,50.2518373 91.96039,51.8753313 2.56786,1.68347 4.78081,3.623993 6.42599,5.634871 0.80862,0.988386 1.50929,1.940822 1.55702,2.116524 0.0494,0.181867 -9.12948,5.826067 -21.31117,13.104498 L 198.76868,90.114708 196.48642,87.853904 194.20416,85.5931 166.42291,69.941405 c -15.27968,-8.60843 -28.14371,-15.831873 -28.58673,-16.052094 -3.28208,-1.6315 -9.05766,-1.65663 -12.68826,-0.05521 -1.2611,0.556254 -53.455141,31.224901 -55.469927,32.593519 -1.445863,0.982154 -2.830817,2.429195 -3.92071,4.096477 l -0.974931,1.491417 z m 62.301337,11.802393 c 0,-0.07276 0.35719,-0.317 0.79375,-0.542756 0.43656,-0.225755 0.79375,-0.350933 0.79375,-0.278172 0,0.07276 -0.35719,0.317 -0.79375,0.542756 -0.43656,0.225755 -0.79375,0.350932 -0.79375,0.278172 z m 52.05677,-0.561798 c -0.98913,-0.536612 -0.92892,-0.760111 0.0661,-0.245541 0.43657,0.225756 0.79375,0.466937 0.79375,0.535961 0,0.170259 -0.0284,0.160658 -0.85989,-0.29042 z m -50.20469,-0.491506 c 0,-0.07276 0.23813,-0.259733 0.52917,-0.415493 0.29104,-0.155761 0.52917,-0.223671 0.52917,-0.150911 0,0.07276 -0.23813,0.259734 -0.52917,0.415494 -0.29104,0.15576 -0.52917,0.223671 -0.52917,0.15091 z m 48.3526,-0.566827 c -0.98912,-0.536612 -0.92892,-0.760111 0.0661,-0.245541 0.43656,0.225755 0.79375,0.466936 0.79375,0.535961 0,0.170259 -0.0284,0.160657 -0.8599,-0.29042 z m -47.02968,-0.226923 c 0,-0.07276 0.23812,-0.259733 0.52917,-0.415493 0.29104,-0.155761 0.52916,-0.223671 0.52916,-0.150911 0,0.07276 -0.23812,0.259734 -0.52916,0.415494 -0.29105,0.15576 -0.52917,0.223671 -0.52917,0.15091 z m 1.45521,-0.865941 c 0.14552,-0.150125 0.85989,-0.606031 1.5875,-1.013127 0.7276,-0.407098 1.20385,-0.61735 1.05833,-0.467228 -0.14552,0.150125 -0.8599,0.606031 -1.5875,1.013127 -0.7276,0.407098 -1.20385,0.61735 -1.05833,0.467228 z m 43.19322,-0.230053 c -0.98912,-0.536612 -0.92892,-0.760111 0.0661,-0.245541 0.43656,0.225756 0.79375,0.466937 0.79375,0.535961 0,0.170259 -0.0284,0.160658 -0.8599,-0.29042 z m -1.85208,-1.058333 c -0.98913,-0.536612 -0.92892,-0.760111 0.0661,-0.245542 0.43656,0.225756 0.79375,0.466937 0.79375,0.535962 0,0.170259 -0.0284,0.160657 -0.8599,-0.29042 z m -38.29844,-0.491506 c 0,-0.07276 0.23813,-0.259734 0.52917,-0.415494 0.29104,-0.15576 0.52917,-0.223671 0.52917,-0.15091 0,0.07276 -0.23813,0.259733 -0.52917,0.415493 -0.29104,0.155761 -0.52917,0.223671 -0.52917,0.150911 z m 36.10005,-0.826966 c -0.49319,-0.395126 -0.48994,-0.40001 0.0817,-0.122981 0.32743,0.158668 0.59532,0.343829 0.59532,0.41147 0,0.202464 -0.13722,0.143996 -0.67704,-0.288489 z m -34.77713,0.03322 c 0,-0.07276 0.23813,-0.259734 0.52917,-0.415494 0.29104,-0.15576 0.52916,-0.223671 0.52916,-0.15091 0,0.07276 -0.23812,0.259733 -0.52916,0.415493 -0.29104,0.155761 -0.52917,0.223671 -0.52917,0.150911 z m 1.32292,-0.79878 c 0,-0.07276 0.35719,-0.317 0.79375,-0.542756 0.43656,-0.225755 0.79375,-0.350932 0.79375,-0.278172 0,0.07276 -0.35719,0.317 -0.79375,0.542756 -0.43656,0.225755 -0.79375,0.350933 -0.79375,0.278172 z m 31.41927,-0.297214 c -0.98913,-0.536612 -0.92892,-0.760111 0.0661,-0.245542 0.43657,0.225756 0.79375,0.466937 0.79375,0.535962 0,0.170259 -0.0284,0.160657 -0.85989,-0.29042 z m -29.56719,-0.75609 c 0,-0.07276 0.23813,-0.259733 0.52917,-0.415493 0.29104,-0.15576 0.52916,-0.223671 0.52916,-0.150911 0,0.07276 -0.23812,0.259734 -0.52916,0.415494 -0.29104,0.15576 -0.52917,0.223671 -0.52917,0.15091 z m 27.7151,-0.302244 c -0.98912,-0.536612 -0.92892,-0.760111 0.0661,-0.245541 0.43656,0.225756 0.79375,0.466937 0.79375,0.535961 0,0.17026 -0.0284,0.160658 -0.8599,-0.29042 z m -26.39218,-0.491506 c 0,-0.07276 0.23812,-0.259733 0.52916,-0.415493 0.29105,-0.155761 0.52917,-0.223671 0.52917,-0.150911 0,0.07276 -0.23812,0.259734 -0.52917,0.415494 -0.29104,0.15576 -0.52916,0.223671 -0.52916,0.15091 z m 24.01093,-0.83141 c -0.98912,-0.536612 -0.92892,-0.760111 0.0662,-0.245542 0.43656,0.225756 0.79375,0.466937 0.79375,0.535962 0,0.170259 -0.0284,0.160657 -0.8599,-0.29042 z m -22.68802,0.03766 c 0,-0.07276 0.23813,-0.259733 0.52917,-0.415493 0.29104,-0.155761 0.52917,-0.223671 0.52917,-0.150911 0,0.07276 -0.23813,0.259734 -0.52917,0.415494 -0.29104,0.15576 -0.52917,0.223671 -0.52917,0.15091 z m 1.32292,-0.798779 c 0,-0.07276 0.35719,-0.317 0.79375,-0.542756 0.43656,-0.225756 0.79375,-0.350933 0.79375,-0.278172 0,0.07276 -0.35719,0.317 -0.79375,0.542755 -0.43656,0.225756 -0.79375,0.350933 -0.79375,0.278173 z m 19.51302,-0.297215 c -0.98913,-0.536612 -0.92892,-0.760111 0.0662,-0.245541 0.43656,0.225756 0.79375,0.466937 0.79375,0.535961 0,0.17026 -0.0284,0.160658 -0.8599,-0.29042 z m -17.66094,-0.756089 c 0,-0.07276 0.23813,-0.259733 0.52917,-0.415494 0.29104,-0.15576 0.52917,-0.223671 0.52917,-0.15091 0,0.07276 -0.23813,0.259733 -0.52917,0.415494 -0.29104,0.15576 -0.52917,0.22367 -0.52917,0.15091 z m 15.80886,-0.302244 c -0.98913,-0.536612 -0.92892,-0.760111 0.0661,-0.245541 0.43657,0.225755 0.79375,0.466936 0.79375,0.535961 0,0.170259 -0.0284,0.160657 -0.85989,-0.29042 z m -14.48594,-0.491506 c 0,-0.07276 0.23813,-0.259734 0.52917,-0.415494 0.29104,-0.15576 0.52916,-0.223671 0.52916,-0.15091 0,0.07276 -0.23812,0.259733 -0.52916,0.415494 -0.29104,0.15576 -0.52917,0.22367 -0.52917,0.15091 z m 12.43542,-0.680077 c -0.23847,-0.154109 -0.2711,-0.258098 -0.0818,-0.260533 0.17331,-0.0021 0.3887,0.115012 0.47863,0.260533 0.20302,0.328488 0.11142,0.328488 -0.39687,0 z m -10.7312,-0.382278 c 0.28247,-0.226311 0.62974,-0.411472 0.7717,-0.411472 0.33616,0 0.18606,0.122211 -0.62384,0.507923 -0.62369,0.297035 -0.63213,0.291526 -0.14786,-0.09645 z m 1.47078,-0.676055 c 0.21828,-0.141066 0.57547,-0.249936 0.79375,-0.241935 0.26169,0.0096 0.21663,0.092 -0.13229,0.241935 -0.72736,0.312557 -1.14511,0.312557 -0.66146,0 z m 6.87917,0 c -0.21828,-0.141066 -0.27781,-0.25648 -0.13229,-0.25648 0.14552,0 0.44317,0.115414 0.66145,0.25648 0.21829,0.141065 0.27782,0.256479 0.1323,0.256479 -0.14552,0 -0.44318,-0.115414 -0.66146,-0.256479 z M 129.4474,78.14183 c 0.1819,-0.0734 0.47955,-0.0734 0.66145,0 0.1819,0.0734 0.0331,0.133453 -0.33073,0.133453 -0.3638,0 -0.51263,-0.06006 -0.33072,-0.133453 z m 3.96875,0 c 0.1819,-0.0734 0.47955,-0.0734 0.66145,0 0.1819,0.0734 0.0331,0.133453 -0.33073,0.133453 -0.3638,0 -0.51263,-0.06006 -0.33072,-0.133453 z m -1.57097,-0.270095 c 0.191,-0.07643 0.4192,-0.06703 0.50712,0.02088 0.0879,0.08792 -0.0684,0.150453 -0.34727,0.138964 -0.30822,-0.0127 -0.37091,-0.07539 -0.15985,-0.15985 z"
        id="path214" />
      <path style="fill:#36be6d;stroke-width:0.264583"
        d="m 81.735142,101.89737 c -2.753285,-1.6969 -7.655115,-4.570374 -10.892953,-6.385496 -3.237839,-1.815118 -5.886469,-3.420173 -5.885847,-3.566787 0.0037,-0.875808 2.919169,-4.291878 4.690414,-5.495822 2.029844,-1.379717 54.226024,-32.052716 55.501164,-32.615164 3.6306,-1.60142 9.40618,-1.57629 12.68826,0.05521 0.44302,0.220221 13.29188,7.443664 28.55303,16.052094 28.63573,16.1527 29.77671,16.855377 31.65709,19.496123 l 0.54247,0.76183 -6.42564,3.835882 c -3.5341,2.109735 -8.37638,5.141696 -10.76062,6.73769 l -4.33498,2.90181 -1.01152,-1.27966 c -0.55633,-0.70382 -1.40356,-1.57629 -1.88272,-1.93883 -1.2474,-0.943783 -36.51776,-20.812891 -38.55165,-21.717576 -1.42901,-0.635632 -2.03543,-0.752385 -3.83878,-0.739071 -1.27061,0.0094 -2.67515,0.196935 -3.45335,0.46114 -1.04424,0.354528 -36.950753,21.2656 -37.445134,21.807127 -0.07276,0.0797 -0.591622,0.48751 -1.153025,0.90624 -0.561401,0.41874 -1.463869,1.44696 -2.005484,2.28494 l -0.98475,1.5236 z"
        id="path212" />
      <path style="fill:#376fb1;stroke-width:0.264583"
        d="m 131.29948,257.25326 c 0.32742,-0.0631 0.8632,-0.0631 1.19062,0 0.32743,0.063 0.0595,0.11465 -0.59531,0.11465 -0.65484,0 -0.92273,-0.0516 -0.59531,-0.11465 z m -2.6293,-0.2586 c 0.191,-0.0764 0.4192,-0.067 0.50712,0.0209 0.0879,0.0879 -0.0684,0.15047 -0.34726,0.13899 -0.30823,-0.0127 -0.37092,-0.0754 -0.15986,-0.15986 z m 4.28294,-62.6704 v -12.74777 l 1.21461,-0.16648 c 0.66803,-0.0916 1.70982,-0.38742 2.3151,-0.65746 2.32061,-1.03531 37.66499,-22.08523 38.6374,-23.01113 1.2142,-1.15612 2.56318,-3.20503 3.081,-4.67957 0.30426,-0.86643 0.38745,-4.89586 0.45876,-22.22234 0.0911,-22.13807 0.0275,-23.71719 -1.0441,-25.92288 -0.31743,-0.65338 -0.52493,-1.23347 -0.46111,-1.28909 1.60916,-1.40231 21.30273,-13.613662 21.54404,-13.358771 0.0452,0.04776 0.4407,0.801206 0.87888,1.674331 1.74034,3.467854 1.63792,1.12735 1.63792,37.43098 0,36.23305 0.0838,34.2758 -1.61419,37.7248 -0.93514,1.89956 -2.38142,3.71947 -4.05467,5.10216 -0.99152,0.81934 -53.86047,32.19426 -56.37593,33.45612 -1.07992,0.54174 -2.86893,1.01078 -4.69635,1.23129 l -1.52136,0.18357 z m -108.777493,5.23811 c -0.329107,-0.41964 -0.319749,-0.429 0.0999,-0.0999 0.44073,0.34564 0.580888,0.56291 0.363125,0.56291 -0.05494,0 -0.2633,-0.20835 -0.463021,-0.46302 z m -5.766194,-10.53923 c 0.0127,-0.30823 0.07539,-0.37092 0.159851,-0.15985 0.07643,0.19099 0.06703,0.4192 -0.02088,0.50711 -0.08792,0.0879 -0.150452,-0.0683 -0.138964,-0.34726 z M 18.43032,76.464975 c 0,-0.363802 0.06006,-0.51263 0.133453,-0.330729 0.0734,0.181901 0.0734,0.479557 0,0.661458 -0.0734,0.181901 -0.133453,0.03307 -0.133453,-0.330729 z"
        id="path210" />
      <path style="fill:#072f41;stroke-width:0.264583"
        d="m 127.66146,256.78072 c -2.33322,-0.46797 -4.7506,-1.30876 -6.84984,-2.38242 -4.59281,-2.34899 -94.908144,-53.58055 -96.086395,-54.5052 -1.707293,-1.33981 -3.513841,-3.70389 -4.657386,-6.09472 -1.802019,-3.76752 -1.697575,0.27245 -1.605658,-62.10747 0.06571,-44.598675 0.153709,-56.693679 0.420073,-57.739477 0.561869,-2.206019 1.620687,-5.319713 1.972665,-5.801072 0.300098,-0.410411 2.416598,0.714227 22.179184,11.78531 l 21.847428,12.239016 -0.470392,1.074833 c -1.054642,2.409825 -1.071062,3.057509 -0.989753,39.04254 l 0.07861,34.79271 0.778029,1.5875 c 1.549516,3.16166 0.997259,2.81218 32.628876,20.64851 29.294659,16.51858 31.342989,17.58746 33.698039,17.58462 0.38199,-5.3e-4 1.0666,0.0736 1.52135,0.16453 l 0.82682,0.16536 v 24.97005 24.97006 l -1.78593,-0.0249 c -0.98227,-0.0138 -2.55985,-0.18008 -3.50573,-0.36981 z m 5.02708,-66.65515 c 0,-6.4023 -0.076,-8.34299 -0.33073,-8.44578 -0.19757,-0.0797 -0.14431,-0.14186 0.13229,-0.15434 0.43176,-0.0195 0.46302,0.55072 0.46302,8.44578 0,4.65666 -0.0595,8.46666 -0.13229,8.46666 -0.0728,0 -0.13229,-3.74054 -0.13229,-8.31232 z M 87.940209,157.75821 c -0.329108,-0.41965 -0.319749,-0.42901 0.0999,-0.0999 0.254661,0.19972 0.463021,0.40808 0.463021,0.46302 0,0.21776 -0.217274,0.0776 -0.562917,-0.36312 z M 85.98375,130.96914 c 0,-12.44203 0.03236,-17.53195 0.0719,-11.31093 0.03955,6.22101 0.03955,16.40086 0,22.62187 -0.03955,6.22102 -0.0719,1.13109 -0.0719,-11.31094 z"
        id="path208" />
      <path style="fill:#031518;stroke-width:0.264583"
        d="m 130.57187,206.90816 c -0.80036,-0.10538 -2.15587,-0.41423 -3.01224,-0.68633 -0.90485,-0.28751 -13.76042,-7.37593 -30.691665,-16.92304 C 65.278501,171.48626 65.827422,171.83367 64.27803,168.67227 l -0.778029,-1.5875 v -35.58646 c 0,-33.087912 0.03234,-35.688631 0.460632,-37.041668 0.78659,-2.484964 0.31651,-2.557653 6.725597,1.039955 3.178096,1.783956 8.117522,4.680953 10.976504,6.437783 l 5.198149,3.19422 -0.435649,1.08017 c -0.393123,0.97472 -0.43565,3.37883 -0.43565,24.62808 0,23.44398 0.0024,23.55328 0.561636,24.76219 0.308901,0.66786 0.968524,1.62036 1.465826,2.11667 1.04235,1.04028 39.055024,22.60113 41.099624,23.31177 0.7276,0.25289 1.6801,0.46552 2.11666,0.4725 0.43657,0.007 0.9246,0.10016 1.08453,0.20707 0.20035,0.13394 0.34526,4.12307 0.46598,12.82824 0.16588,11.96088 0.15039,12.63201 -0.29077,12.59916 -0.25629,-0.0191 -1.12083,-0.12091 -1.9212,-0.22629 z"
        id="path206" />
    </g>
  </g>
</svg>