<?xml version="1.0" encoding="UTF-8" standalone="no"?>
<!-- Created with Inkscape (http://www.inkscape.org/) -->

<svg
   width="1024"
   height="1024"
   viewBox="0 0 270.93333 270.93333"
   version="1.1"
   id="svg954"
   xml:space="preserve"
   sodipodi:docname="kotlin-flow-square-icon.svg"
   inkscape:version="1.2 (dc2aedaf03, 2022-05-15)"
   xmlns:inkscape="http://www.inkscape.org/namespaces/inkscape"
   xmlns:sodipodi="http://sodipodi.sourceforge.net/DTD/sodipodi-0.dtd"
   xmlns="http://www.w3.org/2000/svg"
   xmlns:svg="http://www.w3.org/2000/svg"><sodipodi:namedview
     id="namedview31"
     pagecolor="#ffffff"
     bordercolor="#000000"
     borderopacity="0.25"
     inkscape:showpageshadow="2"
     inkscape:pageopacity="0.0"
     inkscape:pagecheckerboard="0"
     inkscape:deskcolor="#d1d1d1"
     showgrid="false"
     inkscape:zoom="0.88085938"
     inkscape:cx="485.32151"
     inkscape:cy="512"
     inkscape:window-width="1920"
     inkscape:window-height="1057"
     inkscape:window-x="3832"
     inkscape:window-y="-8"
     inkscape:window-maximized="1"
     inkscape:current-layer="svg954" /><defs
     id="defs951"><linearGradient
       id="kotlin-original-a"
       gradientUnits="userSpaceOnUse"
       x1="-11.899"
       y1="48.694"
       x2="40.299"
       y2="-8.3219995"
       gradientTransform="matrix(1.1083333,0,0,1.1083333,64.533336,34.103251)"><stop
         offset="0"
         stop-color="#1c93c1"
         id="stop1190" /><stop
         offset=".163"
         stop-color="#2391c0"
         id="stop1192" /><stop
         offset=".404"
         stop-color="#378bbe"
         id="stop1194" /><stop
         offset=".696"
         stop-color="#587eb9"
         id="stop1196" /><stop
         offset=".995"
         stop-color="#7f6cb1"
         id="stop1198" /></linearGradient><linearGradient
       id="kotlin-original-b"
       gradientUnits="userSpaceOnUse"
       x1="43.553001"
       y1="149.174"
       x2="95.987999"
       y2="94.875999"
       gradientTransform="matrix(1.1083333,0,0,1.1083333,64.533336,34.103251)"><stop
         offset="0"
         stop-color="#1c93c1"
         id="stop1203" /><stop
         offset=".216"
         stop-color="#2d8ebf"
         id="stop1205" /><stop
         offset=".64"
         stop-color="#587eb9"
         id="stop1207" /><stop
         offset=".995"
         stop-color="#7f6cb1"
         id="stop1209" /></linearGradient><linearGradient
       id="kotlin-original-c"
       gradientUnits="userSpaceOnUse"
       x1="3.24"
       y1="95.249001"
       x2="92.481003"
       y2="2.1159999"
       gradientTransform="matrix(1.1083333,0,0,1.1083333,64.533336,34.103251)"><stop
         offset="0"
         stop-color="#c757a7"
         id="stop1214" /><stop
         offset=".046"
         stop-color="#ca5a9e"
         id="stop1216" /><stop
         offset=".241"
         stop-color="#d66779"
         id="stop1218" /><stop
         offset=".428"
         stop-color="#e17357"
         id="stop1220" /><stop
         offset=".6"
         stop-color="#e97c3a"
         id="stop1222" /><stop
         offset=".756"
         stop-color="#ef8324"
         id="stop1224" /><stop
         offset=".888"
         stop-color="#f28817"
         id="stop1226" /><stop
         offset=".982"
         stop-color="#f48912"
         id="stop1228" /></linearGradient></defs><g
     id="layer1"><g
       id="g1571"
       transform="translate(-7.8743499e-7,7.9161466)"><path
         fill="url(#kotlin-original-a)"
         d="M 64.533324,34.103253 H 137.01832 L 64.533324,105.47991 Z"
         id="path1201"
         style="fill:url(#kotlin-original-a);stroke-width:1.10833" /><path
         fill="url(#kotlin-original-b)"
         d="M 206.4,175.96991 136.13165,103.48492 64.533324,175.96991 Z"
         id="path1212"
         style="fill:url(#kotlin-original-b);stroke-width:1.10833" /><path
         fill="url(#kotlin-original-c)"
         d="M 64.533324,175.96991 206.4,34.103253 H 136.13165 L 64.533324,104.70409 Z"
         id="path1231"
         style="fill:url(#kotlin-original-c);stroke-width:1.10833" /></g><g
       aria-label="Kotlin Flow API"
       id="text1414"
       style="font-size:35.2778px;font-family:'Roboto Mono';-inkscape-font-specification:'Roboto Mono';fill:#ffffff;stroke-width:0.264583"><path
         d="m 19.719987,231.43282 v -25.25257 h 3.341745 v 12.52293 l 12.540156,-12.52293 h 4.530304 l -10.593676,10.23194 11.058764,15.02063 h -4.409725 l -8.991706,-12.78132 -4.134117,4.03077 v 8.75055 z"
         style="font-family:Arial;-inkscape-font-specification:Arial;fill:#000000"
         id="path191" /><path
         d="m 41.837515,222.28608 q 0,-5.08152 2.82498,-7.52754 2.359892,-2.03261 5.753313,-2.03261 3.772382,0 6.166725,2.48047 2.394343,2.46325 2.394343,6.8213 0,3.53122 -1.06798,5.56383 -1.050755,2.01538 -3.083362,3.13504 -2.015383,1.11966 -4.409726,1.11966 -3.841284,0 -6.218401,-2.46325 -2.359892,-2.46324 -2.359892,-7.0969 z m 3.186715,0 q 0,3.514 1.533069,5.271 1.533068,1.73977 3.858509,1.73977 2.308216,0 3.841284,-1.75699 1.533069,-1.757 1.533069,-5.35713 0,-3.39342 -1.550294,-5.1332 -1.533069,-1.757 -3.824059,-1.757 -2.325441,0 -3.858509,1.73978 -1.533069,1.73977 -1.533069,5.25377 z"
         style="font-family:Arial;-inkscape-font-specification:Arial;fill:#000000"
         id="path193" /><path
         d="m 69.381071,228.65951 0.447863,2.73885 q -1.309138,0.27561 -2.342667,0.27561 -1.688098,0 -2.618274,-0.53399 -0.930177,-0.53399 -1.309137,-1.39526 -0.378961,-0.8785 -0.378961,-3.66903 V 215.55091 H 60.90613 v -2.41156 h 2.273765 v -4.53031 l 3.083362,-1.86035 v 6.39066 h 3.117814 v 2.41156 h -3.117814 v 10.69703 q 0,1.32637 0.15503,1.70533 0.172255,0.37896 0.53399,0.60289 0.378961,0.22393 1.06798,0.22393 0.516765,0 1.360814,-0.12058 z"
         style="font-family:Arial;-inkscape-font-specification:Arial;fill:#000000"
         id="path195" /><path
         d="m 72.343856,231.43282 v -25.25257 h 3.100588 v 25.25257 z"
         style="font-family:Arial;-inkscape-font-specification:Arial;fill:#000000"
         id="path197" /><path
         d="m 80.26758,209.74592 v -3.56567 h 3.100588 v 3.56567 z m 0,21.6869 v -18.29347 h 3.100588 v 18.29347 z"
         style="font-family:Arial;-inkscape-font-specification:Arial;fill:#000000"
         id="path199" /><path
         d="m 88.087948,231.43282 v -18.29347 h 2.790529 v 2.60105 q 2.015382,-3.01447 5.822215,-3.01447 1.653647,0 3.031686,0.6029 1.395262,0.58566 2.084282,1.55029 0.68902,0.96463 0.96463,2.29099 0.17225,0.86128 0.17225,3.01446 v 11.24825 h -3.100583 v -11.12767 q 0,-1.8948 -0.361736,-2.82498 -0.361735,-0.9474 -1.291911,-1.49862 -0.912951,-0.56844 -2.153187,-0.56844 -1.980931,0 -3.427872,1.25746 -1.429715,1.25746 -1.429715,4.77146 v 9.99079 z"
         style="font-family:Arial;-inkscape-font-specification:Arial;fill:#000000"
         id="path201" /><path
         d="m 118.07752,231.43282 v -25.25257 h 17.03601 v 2.98001 h -13.69426 v 7.82037 h 11.85113 v 2.98001 h -11.85113 v 11.47218 z"
         style="font-family:Arial;-inkscape-font-specification:Arial;fill:#000000"
         id="path203" /><path
         d="m 138.98927,231.43282 v -25.25257 h 3.10059 v 25.25257 z"
         style="font-family:Arial;-inkscape-font-specification:Arial;fill:#000000"
         id="path205" /><path
         d="m 145.74166,222.28608 q 0,-5.08152 2.82498,-7.52754 2.3599,-2.03261 5.75332,-2.03261 3.77238,0 6.16672,2.48047 2.39434,2.46325 2.39434,6.8213 0,3.53122 -1.06798,5.56383 -1.05075,2.01538 -3.08336,3.13504 -2.01538,1.11966 -4.40972,1.11966 -3.84129,0 -6.21841,-2.46325 -2.35989,-2.46324 -2.35989,-7.0969 z m 3.18672,0 q 0,3.514 1.53307,5.271 1.53307,1.73977 3.85851,1.73977 2.30821,0 3.84128,-1.75699 1.53307,-1.757 1.53307,-5.35713 0,-3.39342 -1.55029,-5.1332 -1.53307,-1.757 -3.82406,-1.757 -2.32544,0 -3.85851,1.73978 -1.53307,1.73977 -1.53307,5.25377 z"
         style="font-family:Arial;-inkscape-font-specification:Arial;fill:#000000"
         id="path207" /><path
         d="m 169.8918,231.43282 -5.59828,-18.29347 h 3.20394 l 2.91111,10.55922 1.0852,3.92741 q 0.0689,-0.29283 0.9474,-3.77238 l 2.91111,-10.71425 h 3.18672 l 2.73885,10.6109 0.91295,3.49677 1.05076,-3.53122 3.13503,-10.57645 h 3.01447 l -5.71887,18.29347 h -3.22116 l -2.91111,-10.95542 -0.70625,-3.11781 -3.70348,14.07323 z"
         style="font-family:Arial;-inkscape-font-specification:Arial;fill:#000000"
         id="path209" /><path
         d="m 197.4698,231.43282 9.69795,-25.25257 h 3.60013 l 10.33529,25.25257 h -3.80683 l -2.94556,-7.64812 h -10.55922 l -2.77331,7.64812 z m 7.28638,-10.36975 h 8.56107 l -2.6355,-6.99355 q -1.20578,-3.18671 -1.79145,-5.23655 -0.48231,2.4288 -1.36081,4.82314 z"
         style="font-family:Arial;-inkscape-font-specification:Arial;fill:#000000"
         id="path211" /><path
         d="m 223.77312,231.43282 v -25.25257 h 9.5257 q 2.51492,0 3.84128,0.24116 1.86035,0.31005 3.11781,1.18855 1.25746,0.86128 2.01539,2.4288 0.77514,1.56752 0.77514,3.4451 0,3.22116 -2.04983,5.46048 -2.04983,2.22208 -7.40696,2.22208 h -6.47679 v 10.2664 z m 3.34174,-13.24641 h 6.52847 q 3.23839,0 4.5992,-1.20578 1.36081,-1.20578 1.36081,-3.39342 0,-1.58475 -0.80959,-2.7044 -0.79238,-1.13689 -2.10151,-1.49862 -0.84405,-0.22393 -3.11782,-0.22393 h -6.45956 z"
         style="font-family:Arial;-inkscape-font-specification:Arial;fill:#000000"
         id="path213" /><path
         d="m 247.87159,231.43282 v -25.25257 h 3.34175 v 25.25257 z"
         style="font-family:Arial;-inkscape-font-specification:Arial;fill:#000000"
         id="path215" /></g></g></svg>
